<?xml version="1.0" encoding="utf-8"?>
<!-- Generator: Adobe Illustrator 19.2.1, SVG Export Plug-In . SVG Version: 6.00 Build 0)  -->
<svg version="1.1" xmlns="http://www.w3.org/2000/svg" xmlns:xlink="http://www.w3.org/1999/xlink" x="0px" y="0px"
	 viewBox="0 0 206.7 39.3" style="enable-background:new 0 0 206.7 39.3;" xml:space="preserve">
<style type="text/css">
	.st0{display:none;}
	.st1{display:inline;fill:#1E2736;stroke:#000000;stroke-miterlimit:10;}
	.st2{fill:#C3CEE0;}
	.st3{font-family:'Copperplate-Bold';}
	.st4{font-size:18.6987px;}
	.st5{font-family:'Copperplate-Light';}
	.st6{font-size:13.0462px;}
	.st7{letter-spacing:8;}
	.st8{display:inline;}
</style>
<g id="Layer_2" class="st0">
	<rect x="-317" y="-353" class="st1" width="806" height="604"/>
</g>
<g id="Layer_1">
	<g>
		<path class="st2" d="M140.7-120.5c-6.5,4.5-11,5.1-11,5.1s0.2-20.2-11.5-24.9c-11.7-4.7-34.4-14.4-35.1-23.1c0,0-5,10.6,0.9,18
			c2.4,3,4.8,5.1,6.9,6.6c1.2,0.7,2.8,1.1,4,1.4c17.2,3.1,15.6,12.9,15.6,12.9s0.2-4.1-6-8.6c-1.6-1.1-4.1-2.4-8.7-2.9
			c-3.2-0.4-9.2,1-16.7-0.4c-8.1-1.4-17-7-17-7s-1.4,9.4,9.5,16.4c10.8,7,9.9,4.9,20,18.1c1.6,2.1,8.6,6.2,8.6,6.2s-21,4.9-28.6,6.2
			C64-95.3,54.9-92,63-85.9c8.1,6.1,8.9,7.2,16.7,6.1c7.7-1.1,14.1-10.1,19.6-10.3c0,0,22.2,1.8,29.2,0.2
			c7.1-1.6,15.3-4.2,17.4-18.8c0,0,0.9-6,6.5-6.5c5.6-0.5,6.2-1.8,6.2-1.8c0,0-0.3-0.1-3.1-1.8C152.2-120.7,147.3-125,140.7-120.5z"
			/>
		<g>
			<path class="st2" d="M32.3-90.4c1.8-0.9,3.8-1.5,5.9-1.6v-6.2c0-9.7-1.2-17.1-6.9-17.3c0.9,4.3,0.9,8.8,0.9,11.4V-90.4z
				 M86.5-55.1c-5.9-5-14.5-6.4-19.9-6.8L50.2-80.7c-4.1-4.7-12.2-7-17.1-2.5c-4.9,4.6-3.4,13.1,0.7,17.8c0,0,5.1,5.3,12.5,14l0,0
				c0.8,0.9,1.6,1.9,2.4,2.9c1.7,2,5.3,8.8,3.3,13.3c-0.3-0.2-0.5-0.5-0.8-0.8l-7.5-8.3c-8.4-10-14.5-16.4-14.6-16.5
				c-5.8-6.5-7.7-17-2.7-24.4v-18.8c0-9.9-1.2-17.4-7.1-17.4c-8.1,0-10.6,5.9-10.6,17.7s0,17.7,0,27c0,11,8.8,26.6,21.2,40.7
				c3.9,4.4,9.6,10.1,18.6,14.6c6.6,3.3,8.1,6.4,8.1,18.3h40.8C97.4-38.6,95.2-47.7,86.5-55.1z M174.3-104.1c0-2.6,0-7.1,0.9-11.4
				c-5.7,0.2-6.9,7.6-6.9,17.3v6.2c2.1,0.2,4.1,0.7,5.9,1.6V-104.1z M109.2-3.1H150c0-11.8,1.5-15,8.1-18.3
				c8.9-4.4,14.7-10.2,18.6-14.6C189.2-50.1,198-65.7,198-76.7c0-9.3,0-15.2,0-27s-2.5-17.7-10.6-17.7c-5.9,0-7.1,7.5-7.1,17.4v18.8
				c5,7.3,3.1,17.8-2.7,24.4c-0.1,0.1-6.2,6.5-14.6,16.5l-7.5,8.3c-0.2,0.3-0.5,0.6-0.8,0.8c-1.9-4.5,1.7-11.4,3.3-13.3
				c0.8-1,1.6-1.9,2.4-2.9l0,0c7.4-8.6,12.5-14,12.5-14c4.1-4.7,5.6-13.2,0.7-17.8c-4.9-4.6-13-2.2-17.1,2.5l-16.5,18.8
				c-5.3,0.4-14,1.7-19.9,6.8C111.4-47.7,109.2-38.6,109.2-3.1z"/>
		</g>
		<text transform="matrix(1 0 0 1 6.29 17.2178)" class="st2 st3 st4">BONANZA FUNERAL</text>
		<text transform="matrix(1 0 0 1 8.4819 31.9648)" class="st2 st5 st6 st7">PLAN GREMIAL</text>
	</g>
</g>
<g id="Layer_1_copy" class="st0">
	<g class="st8">
		<path d="M140.7-120.5c-6.5,4.5-11,5.1-11,5.1s0.2-20.2-11.5-24.9c-11.7-4.7-34.4-14.4-35.1-23.1c0,0-5,10.6,0.9,18
			c2.4,3,4.8,5.1,6.9,6.6c1.2,0.7,2.8,1.1,4,1.4c17.2,3.1,15.6,12.9,15.6,12.9s0.2-4.1-6-8.6c-1.6-1.1-4.1-2.4-8.7-2.9
			c-3.2-0.4-9.2,1-16.7-0.4c-8.1-1.4-17-7-17-7s-1.4,9.4,9.5,16.4c10.8,7,9.9,4.9,20,18.1c1.6,2.1,8.6,6.2,8.6,6.2s-21,4.9-28.6,6.2
			C64-95.3,54.9-92,63-85.9c8.1,6.1,8.9,7.2,16.7,6.1c7.7-1.1,14.1-10.1,19.6-10.3c0,0,22.2,1.8,29.2,0.2
			c7.1-1.6,15.3-4.2,17.4-18.8c0,0,0.9-6,6.5-6.5c5.6-0.5,6.2-1.8,6.2-1.8c0,0-0.3-0.1-3.1-1.8C152.2-120.7,147.3-125,140.7-120.5z"
			/>
		<g>
			<path d="M32.3-90.4c1.8-0.9,3.8-1.5,5.9-1.6v-6.2c0-9.7-1.2-17.1-6.9-17.3c0.9,4.3,0.9,8.8,0.9,11.4V-90.4z M86.5-55.1
				c-5.9-5-14.5-6.4-19.9-6.8L50.2-80.7c-4.1-4.7-12.2-7-17.1-2.5c-4.9,4.6-3.4,13.1,0.7,17.8c0,0,5.1,5.3,12.5,14l0,0
				c0.8,0.9,1.6,1.9,2.4,2.9c1.7,2,5.3,8.8,3.3,13.3c-0.3-0.2-0.5-0.5-0.8-0.8l-7.5-8.3c-8.4-10-14.5-16.4-14.6-16.5
				c-5.8-6.5-7.7-17-2.7-24.4v-18.8c0-9.9-1.2-17.4-7.1-17.4c-8.1,0-10.6,5.9-10.6,17.7s0,17.7,0,27c0,11,8.8,26.6,21.2,40.7
				c3.9,4.4,9.6,10.1,18.6,14.6c6.6,3.3,8.1,6.4,8.1,18.3h40.8C97.4-38.6,95.2-47.7,86.5-55.1z M174.3-104.1c0-2.6,0-7.1,0.9-11.4
				c-5.7,0.2-6.9,7.6-6.9,17.3v6.2c2.1,0.2,4.1,0.7,5.9,1.6V-104.1z M109.2-3.1H150c0-11.8,1.5-15,8.1-18.3
				c8.9-4.4,14.7-10.2,18.6-14.6C189.2-50.1,198-65.7,198-76.7c0-9.3,0-15.2,0-27s-2.5-17.7-10.6-17.7c-5.9,0-7.1,7.5-7.1,17.4v18.8
				c5,7.3,3.1,17.8-2.7,24.4c-0.1,0.1-6.2,6.5-14.6,16.5l-7.5,8.3c-0.2,0.3-0.5,0.6-0.8,0.8c-1.9-4.5,1.7-11.4,3.3-13.3
				c0.8-1,1.6-1.9,2.4-2.9l0,0c7.4-8.6,12.5-14,12.5-14c4.1-4.7,5.6-13.2,0.7-17.8c-4.9-4.6-13-2.2-17.1,2.5l-16.5,18.8
				c-5.3,0.4-14,1.7-19.9,6.8C111.4-47.7,109.2-38.6,109.2-3.1z"/>
		</g>
		<g>
			<path d="M8.3,7.9c0-0.1,0-0.2-0.1-0.2C8.1,7.7,8,7.6,7.7,7.6V7.4h7.1c0.5,0,1,0.1,1.4,0.2S17,7.8,17.4,8c0.3,0.2,0.6,0.5,0.7,0.8
				c0.2,0.3,0.3,0.7,0.3,1.2c0,0.6-0.2,1-0.5,1.4c-0.3,0.3-0.8,0.6-1.3,0.7v0c0.6,0.2,1.2,0.4,1.6,0.8c0.4,0.4,0.6,0.9,0.6,1.6
				c0,0.4-0.1,0.7-0.2,1.1c-0.1,0.3-0.4,0.6-0.7,0.9c-0.3,0.2-0.7,0.4-1.2,0.6c-0.5,0.1-1.1,0.2-1.7,0.2H7.7V17
				c0.2,0,0.4-0.1,0.4-0.1c0.1-0.1,0.1-0.1,0.1-0.2V7.9z M13.6,11.1c0.4,0,0.7,0,1,0s0.5-0.1,0.6-0.1c0.1-0.1,0.3-0.1,0.3-0.3
				c0.1-0.1,0.1-0.3,0.1-0.4c0-0.2,0-0.3-0.1-0.4c-0.1-0.1-0.2-0.2-0.3-0.3c-0.1-0.1-0.4-0.1-0.6-0.1s-0.6,0-1,0h-2.5v1.7H13.6z
				 M14.2,15.2c0.7,0,1.1-0.1,1.4-0.3c0.3-0.2,0.4-0.5,0.4-0.9c0-0.4-0.1-0.7-0.4-0.9c-0.3-0.2-0.7-0.3-1.4-0.3h-3.2v2.2H14.2z"/>
			<path d="M26.5,7.3c0.8,0,1.5,0.1,2.3,0.3c0.7,0.2,1.3,0.5,1.9,1s1,0.9,1.3,1.6c0.3,0.6,0.5,1.3,0.5,2.2c0,0.8-0.2,1.5-0.5,2.2
				c-0.3,0.6-0.7,1.1-1.3,1.6s-1.1,0.7-1.9,0.9c-0.7,0.2-1.5,0.3-2.3,0.3S25,17.2,24.3,17c-0.7-0.2-1.3-0.5-1.9-0.9
				c-0.5-0.4-1-0.9-1.3-1.6c-0.3-0.6-0.5-1.3-0.5-2.2c0-0.8,0.2-1.5,0.5-2.2c0.3-0.6,0.7-1.1,1.3-1.6c0.5-0.4,1.1-0.7,1.9-1
				C25,7.4,25.7,7.3,26.5,7.3z M26.5,9.6c-0.4,0-0.8,0.1-1.2,0.2c-0.4,0.1-0.7,0.3-1,0.5c-0.3,0.2-0.5,0.5-0.7,0.9s-0.3,0.7-0.3,1.2
				c0,0.4,0.1,0.8,0.3,1.2s0.4,0.6,0.7,0.9c0.3,0.2,0.6,0.4,1,0.5c0.4,0.1,0.8,0.2,1.2,0.2c0.4,0,0.8-0.1,1.2-0.2
				c0.4-0.1,0.7-0.3,1-0.5c0.3-0.2,0.5-0.5,0.7-0.9s0.3-0.7,0.3-1.2c0-0.4-0.1-0.8-0.3-1.2s-0.4-0.6-0.7-0.9c-0.3-0.2-0.6-0.4-1-0.5
				C27.3,9.6,27,9.6,26.5,9.6z"/>
			<path d="M35.3,7.9c0-0.1,0-0.2-0.1-0.2c-0.1-0.1-0.2-0.1-0.4-0.1V7.4h4.5v0.2c-0.2,0-0.4,0-0.4,0.1c-0.1,0-0.1,0.1-0.1,0.2
				c0,0,0.1,0.1,0.2,0.3c0.2,0.2,0.4,0.4,0.6,0.7c0.3,0.3,0.6,0.6,0.9,1c0.3,0.4,0.7,0.7,1,1.1c0.3,0.4,0.7,0.7,1,1
				c0.3,0.3,0.6,0.6,0.8,0.9v-5c0-0.2-0.1-0.3-0.4-0.3V7.4h3.4v0.2c-0.2,0-0.4,0.1-0.4,0.1c-0.1,0.1-0.1,0.1-0.1,0.2v8.7
				c0,0.1,0,0.2,0.1,0.2c0.1,0.1,0.2,0.1,0.4,0.1v0.2h-3.6V17c0.2,0,0.3,0,0.3-0.1c0.1,0,0.1-0.1,0.1-0.1c0,0,0-0.1-0.1-0.1
				s-0.1-0.2-0.2-0.3c-0.1-0.1-0.3-0.3-0.6-0.6c-0.2-0.3-0.6-0.6-1-1s-0.9-1-1.5-1.6c-0.6-0.6-1.3-1.4-2.1-2.3v5.9
				c0,0.1,0,0.2,0.1,0.2c0.1,0.1,0.2,0.1,0.4,0.1v0.2h-3.6V17c0.2,0,0.4-0.1,0.4-0.1c0.1-0.1,0.1-0.1,0.1-0.2V7.9z"/>
			<path d="M51.6,16.8c0,0.1,0,0.1,0.1,0.1c0,0,0.1,0,0.3,0v0.2h-3.3V17c0.1,0,0.2-0.1,0.3-0.1c0.1-0.1,0.1-0.2,0.2-0.3
				c0-0.1,0.1-0.2,0.2-0.5c0.1-0.3,0.2-0.6,0.4-1c0.2-0.4,0.3-0.9,0.5-1.4c0.2-0.5,0.4-1,0.6-1.6c0.2-0.5,0.4-1,0.6-1.6
				s0.4-1,0.5-1.4c0.1-0.4,0.3-0.7,0.4-1c0.1-0.2,0.1-0.4,0.1-0.4c0-0.1,0-0.1-0.1-0.1c-0.1,0-0.2,0-0.3-0.1V7.4h4.9v0.2
				c-0.1,0-0.2,0-0.2,0.1c-0.1,0-0.1,0.1-0.1,0.2c0,0,0.1,0.2,0.2,0.5C56.9,8.6,57,9,57.2,9.5c0.2,0.5,0.4,1,0.6,1.6
				s0.5,1.2,0.8,1.9c0.3,0.6,0.5,1.2,0.8,1.8s0.5,1.1,0.7,1.6c0.1,0.2,0.2,0.4,0.3,0.4c0.1,0.1,0.2,0.1,0.3,0.1v0.2h-3.7V17
				c0.2,0,0.4-0.1,0.4-0.2c0,0,0-0.1-0.1-0.3c-0.1-0.2-0.1-0.3-0.2-0.5c-0.1-0.2-0.1-0.4-0.2-0.6s-0.1-0.3-0.1-0.4h-4.4
				c-0.1,0.3-0.2,0.6-0.3,0.8s-0.1,0.4-0.2,0.5c0,0.1-0.1,0.2-0.1,0.3C51.6,16.7,51.6,16.8,51.6,16.8z M56.1,13.6l-1.8-4.5l-1.7,4.5
				H56.1z"/>
			<path d="M63.4,7.9c0-0.1,0-0.2-0.1-0.2c-0.1-0.1-0.2-0.1-0.4-0.1V7.4h4.5v0.2c-0.2,0-0.4,0-0.4,0.1c-0.1,0-0.1,0.1-0.1,0.2
				c0,0,0.1,0.1,0.2,0.3c0.2,0.2,0.4,0.4,0.6,0.7c0.3,0.3,0.6,0.6,0.9,1c0.3,0.4,0.7,0.7,1,1.1c0.3,0.4,0.7,0.7,1,1
				c0.3,0.3,0.6,0.6,0.8,0.9v-5c0-0.2-0.1-0.3-0.4-0.3V7.4h3.4v0.2c-0.2,0-0.4,0.1-0.4,0.1c-0.1,0.1-0.1,0.1-0.1,0.2v8.7
				c0,0.1,0,0.2,0.1,0.2c0.1,0.1,0.2,0.1,0.4,0.1v0.2h-3.6V17c0.2,0,0.3,0,0.3-0.1c0.1,0,0.1-0.1,0.1-0.1c0,0,0-0.1-0.1-0.1
				s-0.1-0.2-0.2-0.3c-0.1-0.1-0.3-0.3-0.6-0.6c-0.2-0.3-0.6-0.6-1-1s-0.9-1-1.5-1.6c-0.6-0.6-1.3-1.4-2.1-2.3v5.9
				c0,0.1,0,0.2,0.1,0.2c0.1,0.1,0.2,0.1,0.4,0.1v0.2h-3.6V17c0.2,0,0.4-0.1,0.4-0.1c0.1-0.1,0.1-0.1,0.1-0.2V7.9z"/>
			<path d="M86,15c0.1,0,0.2,0,0.2-0.1c0-0.1,0.1-0.2,0.1-0.3h0.2v3h-0.2c0-0.2-0.1-0.3-0.1-0.3c0,0-0.1-0.1-0.2-0.1h-9.6V17
				l5.4-7.4h-4.5c-0.1,0-0.2,0-0.2,0.1C77.1,9.7,77.1,9.8,77,10h-0.2V6.9H77c0,0.2,0.1,0.4,0.1,0.4c0,0.1,0.1,0.1,0.2,0.1h9.2v0.2
				L81.2,15H86z"/>
			<path d="M91,16.8c0,0.1,0,0.1,0.1,0.1c0,0,0.1,0,0.3,0v0.2h-3.3V17c0.1,0,0.2-0.1,0.3-0.1c0.1-0.1,0.1-0.2,0.2-0.3
				c0-0.1,0.1-0.2,0.2-0.5c0.1-0.3,0.2-0.6,0.4-1c0.2-0.4,0.3-0.9,0.5-1.4c0.2-0.5,0.4-1,0.6-1.6c0.2-0.5,0.4-1,0.6-1.6
				c0.2-0.5,0.4-1,0.5-1.4c0.1-0.4,0.3-0.7,0.4-1c0.1-0.2,0.1-0.4,0.1-0.4c0-0.1,0-0.1-0.1-0.1c-0.1,0-0.2,0-0.3-0.1V7.4h4.9v0.2
				c-0.1,0-0.2,0-0.2,0.1c-0.1,0-0.1,0.1-0.1,0.2c0,0,0.1,0.2,0.2,0.5c0.1,0.3,0.3,0.7,0.5,1.2c0.2,0.5,0.4,1,0.6,1.6
				s0.5,1.2,0.8,1.9c0.3,0.6,0.5,1.2,0.8,1.8c0.2,0.6,0.5,1.1,0.7,1.6c0.1,0.2,0.2,0.4,0.3,0.4C99.8,17,99.9,17,100,17v0.2h-3.7V17
				c0.2,0,0.4-0.1,0.4-0.2c0,0,0-0.1-0.1-0.3c-0.1-0.2-0.1-0.3-0.2-0.5c-0.1-0.2-0.1-0.4-0.2-0.6c-0.1-0.2-0.1-0.3-0.1-0.4h-4.4
				c-0.1,0.3-0.2,0.6-0.3,0.8c-0.1,0.2-0.1,0.4-0.2,0.5c0,0.1-0.1,0.2-0.1,0.3C91.1,16.7,91,16.8,91,16.8z M95.6,13.6l-1.8-4.5
				l-1.7,4.5H95.6z"/>
			<path d="M117.9,10.1c0-0.2-0.1-0.3-0.1-0.4s-0.1-0.1-0.2-0.1h-6.2v1.7h4.2c0.1,0,0.2,0,0.2-0.1c0-0.1,0.1-0.2,0.1-0.3h0.2V14
				h-0.2c0-0.2-0.1-0.3-0.1-0.4s-0.1-0.1-0.2-0.1h-4.2v3.1c0,0.1,0,0.2,0.1,0.2c0.1,0.1,0.2,0.1,0.4,0.1v0.2H108V17
				c0.2,0,0.4-0.1,0.4-0.1c0.1-0.1,0.1-0.1,0.1-0.2V7.9c0-0.1,0-0.2-0.1-0.2c-0.1-0.1-0.2-0.1-0.4-0.1V7.4h9.6c0.1,0,0.2,0,0.2-0.1
				s0.1-0.2,0.1-0.4h0.2v3.3H117.9z"/>
			<path d="M128.6,7.9c0-0.1,0-0.2-0.1-0.2c-0.1-0.1-0.2-0.1-0.4-0.1V7.4h3.9v0.2c-0.2,0-0.4,0.1-0.4,0.1c-0.1,0.1-0.1,0.1-0.1,0.2
				v5c0,0.8-0.1,1.5-0.4,2.1c-0.3,0.6-0.6,1-1.1,1.3c-0.5,0.3-1,0.6-1.6,0.7c-0.6,0.1-1.3,0.2-2,0.2c-0.7,0-1.4-0.1-2-0.2
				c-0.6-0.1-1.2-0.4-1.6-0.7c-0.5-0.3-0.8-0.8-1.1-1.3c-0.3-0.6-0.4-1.3-0.4-2.1v-5c0-0.1,0-0.2-0.1-0.2c-0.1-0.1-0.2-0.1-0.4-0.1
				V7.4h3.9v0.2c-0.2,0-0.4,0.1-0.4,0.1c-0.1,0.1-0.1,0.1-0.1,0.2v5c0,0.7,0.2,1.2,0.6,1.6c0.4,0.3,1,0.5,1.7,0.5s1.3-0.2,1.7-0.5
				s0.6-0.8,0.6-1.6V7.9z"/>
			<path d="M135.6,7.9c0-0.1,0-0.2-0.1-0.2c-0.1-0.1-0.2-0.1-0.4-0.1V7.4h4.5v0.2c-0.2,0-0.4,0-0.4,0.1c-0.1,0-0.1,0.1-0.1,0.2
				c0,0,0.1,0.1,0.2,0.3s0.4,0.4,0.6,0.7c0.3,0.3,0.6,0.6,0.9,1c0.3,0.4,0.7,0.7,1,1.1c0.3,0.4,0.7,0.7,1,1s0.6,0.6,0.8,0.9v-5
				c0-0.2-0.1-0.3-0.4-0.3V7.4h3.4v0.2c-0.2,0-0.4,0.1-0.4,0.1c-0.1,0.1-0.1,0.1-0.1,0.2v8.7c0,0.1,0,0.2,0.1,0.2
				c0.1,0.1,0.2,0.1,0.4,0.1v0.2H143V17c0.2,0,0.3,0,0.3-0.1c0.1,0,0.1-0.1,0.1-0.1c0,0,0-0.1-0.1-0.1s-0.1-0.2-0.2-0.3
				c-0.1-0.1-0.3-0.3-0.6-0.6c-0.2-0.3-0.6-0.6-1-1s-0.9-1-1.5-1.6c-0.6-0.6-1.3-1.4-2.1-2.3v5.9c0,0.1,0,0.2,0.1,0.2
				c0.1,0.1,0.2,0.1,0.4,0.1v0.2H135V17c0.2,0,0.4-0.1,0.4-0.1c0.1-0.1,0.1-0.1,0.1-0.2V7.9z"/>
			<path d="M157,13.6c0-0.1-0.1-0.2-0.2-0.3s-0.2-0.1-0.4-0.1h-3.5v1.7h6c0.1,0,0.2,0,0.2-0.1s0.1-0.2,0.1-0.5h0.2v3.2h-0.2
				c0-0.2-0.1-0.3-0.1-0.3c0,0-0.1-0.1-0.2-0.1h-9.3V17c0.2,0,0.4-0.1,0.4-0.1c0.1-0.1,0.1-0.1,0.1-0.2V7.9c0-0.1,0-0.2-0.1-0.2
				c-0.1-0.1-0.2-0.1-0.4-0.1V7.4h9.3c0.1,0,0.2,0,0.2-0.1s0.1-0.2,0.1-0.4h0.2v3.3h-0.2c0-0.2-0.1-0.4-0.1-0.4s-0.1-0.1-0.2-0.1h-6
				v1.6h3.5c0.2,0,0.3,0,0.4-0.1s0.1-0.2,0.2-0.3h0.2v2.9H157z"/>
			<path d="M165.4,16.7c0,0.1,0,0.2,0.1,0.2c0.1,0.1,0.2,0.1,0.4,0.1v0.2h-3.9V17c0.2,0,0.4-0.1,0.4-0.1c0.1-0.1,0.1-0.1,0.1-0.2
				V7.9c0-0.1,0-0.2-0.1-0.2c-0.1-0.1-0.2-0.1-0.4-0.1V7.4h6.8c1.4,0,2.4,0.3,3,0.8c0.6,0.5,0.9,1.3,0.9,2.3c0,0.9-0.3,1.5-0.8,2
				s-1.1,0.8-1.9,1l2.2,3.1c0.2,0.2,0.3,0.3,0.5,0.3v0.2H169V17c0.3,0,0.4-0.1,0.4-0.3c0,0,0-0.1-0.1-0.3c-0.1-0.2-0.2-0.3-0.4-0.5
				s-0.3-0.4-0.5-0.7c-0.2-0.2-0.4-0.5-0.5-0.7c-0.2-0.2-0.3-0.4-0.4-0.6c-0.1-0.2-0.2-0.3-0.2-0.4h-1.8V16.7z M168.5,11.5
				c0.5,0,0.9-0.1,1.1-0.3c0.2-0.2,0.3-0.4,0.3-0.7s-0.1-0.5-0.3-0.7c-0.2-0.2-0.6-0.3-1.1-0.3h-3.1v2.1H168.5z"/>
			<path d="M177.8,16.8c0,0.1,0,0.1,0.1,0.1c0,0,0.1,0,0.3,0v0.2h-3.3V17c0.1,0,0.2-0.1,0.3-0.1c0.1-0.1,0.1-0.2,0.2-0.3
				c0-0.1,0.1-0.2,0.2-0.5s0.2-0.6,0.4-1c0.2-0.4,0.3-0.9,0.5-1.4c0.2-0.5,0.4-1,0.6-1.6s0.4-1,0.6-1.6c0.2-0.5,0.4-1,0.5-1.4
				c0.1-0.4,0.3-0.7,0.4-1c0.1-0.2,0.1-0.4,0.1-0.4c0-0.1,0-0.1-0.1-0.1c-0.1,0-0.2,0-0.3-0.1V7.4h4.9v0.2c-0.1,0-0.2,0-0.2,0.1
				c-0.1,0-0.1,0.1-0.1,0.2c0,0,0.1,0.2,0.2,0.5c0.1,0.3,0.3,0.7,0.5,1.2c0.2,0.5,0.4,1,0.6,1.6s0.5,1.2,0.8,1.9
				c0.3,0.6,0.5,1.2,0.8,1.8c0.2,0.6,0.5,1.1,0.7,1.6c0.1,0.2,0.2,0.4,0.3,0.4c0.1,0.1,0.2,0.1,0.3,0.1v0.2h-3.7V17
				c0.2,0,0.4-0.1,0.4-0.2c0,0,0-0.1-0.1-0.3c-0.1-0.2-0.1-0.3-0.2-0.5c-0.1-0.2-0.1-0.4-0.2-0.6c-0.1-0.2-0.1-0.3-0.1-0.4h-4.4
				c-0.1,0.3-0.2,0.6-0.3,0.8c-0.1,0.2-0.1,0.4-0.2,0.5c0,0.1-0.1,0.2-0.1,0.3C177.8,16.7,177.8,16.8,177.8,16.8z M182.3,13.6
				l-1.8-4.5l-1.7,4.5H182.3z"/>
			<path d="M198.8,14.9c0.1,0,0.2,0,0.2-0.1s0.1-0.2,0.1-0.4h0.2v3.2h-0.2c0-0.2-0.1-0.3-0.1-0.4s-0.1-0.1-0.2-0.1h-9.8V17
				c0.2,0,0.4-0.1,0.4-0.1c0.1-0.1,0.1-0.1,0.1-0.2V7.9c0-0.1,0-0.2-0.1-0.2c-0.1-0.1-0.2-0.1-0.4-0.1V7.4h3.9v0.2
				c-0.2,0-0.4,0.1-0.4,0.1c-0.1,0.1-0.1,0.1-0.1,0.2v7H198.8z"/>
		</g>
		<g>
			<path d="M10,25.6c0-0.1,0-0.2-0.1-0.2s-0.1-0.1-0.2-0.1v-0.2h4.4c0.9,0,1.5,0.2,1.9,0.5c0.4,0.3,0.6,0.8,0.6,1.4
				c0,0.7-0.2,1.2-0.6,1.5c-0.4,0.4-1,0.5-1.8,0.5h-3v2.5c0,0.1,0,0.2,0.1,0.2c0,0.1,0.1,0.1,0.2,0.1V32H9.7v-0.2
				c0.1,0,0.2,0,0.2-0.1s0.1-0.1,0.1-0.2V25.6z M14.1,28.1c0.5,0,0.9-0.1,1.1-0.3c0.2-0.2,0.3-0.5,0.3-0.8c0-0.3-0.1-0.6-0.3-0.8
				S14.6,26,14.1,26h-2.9v2.1H14.1z"/>
			<path d="M28.4,25.3c-0.1,0-0.2,0-0.2,0.1c0,0.1-0.1,0.2-0.1,0.3v5.5h4.4c0.3,0,0.5-0.1,0.5-0.4H33v1.5h-0.2
				c0-0.2-0.2-0.2-0.5-0.2h-5.8v-0.2c0.1,0,0.2,0,0.2-0.1s0.1-0.1,0.1-0.2v-5.9c0-0.1,0-0.2-0.1-0.2s-0.1-0.1-0.2-0.1v-0.2h1.7V25.3
				z"/>
			<path d="M43.5,31.2c0,0.1-0.1,0.2-0.1,0.3s-0.1,0.2-0.1,0.2c0,0.1,0.1,0.1,0.2,0.1V32H42v-0.2c0.1,0,0.1,0,0.1,0
				c0,0,0.1,0,0.1-0.1c0,0,0.1-0.1,0.1-0.2c0-0.1,0.1-0.2,0.2-0.3l2.4-5.3c0.1-0.1,0.1-0.3,0.2-0.3c0-0.1,0.1-0.1,0.1-0.2
				c0-0.1-0.1-0.2-0.2-0.2v-0.2h1.9v0.2c-0.1,0-0.2,0.1-0.2,0.2c0,0.1,0,0.1,0.1,0.2c0,0.1,0.1,0.2,0.2,0.3l2.5,5.2
				c0.1,0.2,0.1,0.3,0.2,0.4s0.1,0.2,0.1,0.2c0,0,0.1,0.1,0.1,0.1c0,0,0.1,0,0.2,0V32h-1.8v-0.2c0.1,0,0.2,0,0.2,0s0.1-0.1,0.1-0.1
				c0,0,0-0.1,0-0.1c0,0-0.1-0.1-0.1-0.3l-0.5-1H44L43.5,31.2z M47.2,29.3l-1.5-3.1l-1.4,3.1H47.2z"/>
			<path d="M66.1,30.2v-4.7c0-0.1,0-0.2-0.1-0.2c0-0.1-0.1-0.1-0.2-0.1v-0.2h1.6v0.2c-0.1,0-0.2,0-0.2,0.1c0,0.1-0.1,0.1-0.1,0.2
				v5.9c0,0.1,0,0.2,0.1,0.2c0,0.1,0.1,0.1,0.2,0.1V32h-1.7v-0.2c0.2,0,0.3,0,0.3-0.1c0-0.1,0-0.1-0.1-0.2c0,0-0.1-0.1-0.1-0.1
				l-4.6-5.3v5.3c0,0.1,0,0.2,0.1,0.2s0.1,0.1,0.2,0.1V32h-1.6v-0.2c0.1,0,0.2,0,0.2-0.1s0.1-0.1,0.1-0.2v-5.9c0-0.1,0-0.2-0.1-0.2
				s-0.1-0.1-0.2-0.1v-0.2h2.2v0.2c-0.1,0-0.2,0-0.2,0s-0.1,0.1-0.1,0.1c0,0,0,0.1,0,0.1c0,0,0,0.1,0.1,0.1L66.1,30.2L66.1,30.2z"/>
			<path d="M94.7,29.4c-0.3,0-0.5,0.1-0.5,0.3h-0.2v-1.5h0.2c0,0.3,0.2,0.4,0.5,0.4h2.8v0.2c-0.1,0-0.2,0-0.2,0.1c0,0,0,0.1,0,0.3
				v1.1c0,0.1,0,0.2,0.1,0.3c0,0,0.1,0.1,0.2,0.1v0.2c-0.6,0.5-1.3,0.8-1.9,1c-0.7,0.2-1.3,0.3-1.8,0.3c-0.6,0-1.1-0.1-1.6-0.2
				c-0.5-0.2-0.9-0.4-1.3-0.7c-0.4-0.3-0.6-0.7-0.8-1.1c-0.2-0.4-0.3-0.9-0.3-1.4c0-0.5,0.1-1,0.3-1.4c0.2-0.4,0.5-0.8,0.8-1.1
				c0.3-0.3,0.8-0.6,1.2-0.8s1-0.3,1.5-0.3s1,0,1.4,0.1c0.4,0.1,0.7,0.2,0.9,0.3c0.2,0.1,0.4,0.2,0.6,0.3c0.1,0.1,0.2,0.1,0.3,0.1
				c0.1,0,0.1,0,0.1,0c0,0,0.1-0.1,0.1-0.1l0.2,0.1l-0.9,1.3l-0.2-0.1c0,0,0.1-0.1,0.1-0.2c0-0.1-0.1-0.2-0.2-0.3
				c-0.1-0.1-0.3-0.2-0.5-0.3c-0.2-0.1-0.5-0.2-0.8-0.3c-0.3-0.1-0.7-0.1-1-0.1c-0.5,0-0.9,0.1-1.3,0.2c-0.4,0.1-0.7,0.3-0.9,0.6
				c-0.2,0.2-0.4,0.5-0.5,0.8s-0.2,0.6-0.2,1c0,0.4,0.1,0.8,0.2,1.1s0.4,0.6,0.6,0.8c0.2,0.2,0.5,0.4,0.9,0.5c0.3,0.1,0.7,0.2,1,0.2
				c0.6,0,1.1-0.1,1.5-0.2c0.5-0.1,0.8-0.3,1.1-0.6v-1H94.7z"/>
			<path d="M109.5,31.5c0,0.1,0,0.2,0.1,0.2c0,0.1,0.1,0.1,0.2,0.1V32h-1.7v-0.2c0.1,0,0.2,0,0.2-0.1c0-0.1,0.1-0.1,0.1-0.2v-5.9
				c0-0.1,0-0.2-0.1-0.2c0-0.1-0.1-0.1-0.2-0.1v-0.2h4.4c0.9,0,1.5,0.2,1.9,0.5c0.4,0.3,0.6,0.8,0.6,1.4c0,0.5-0.1,1-0.4,1.3
				c-0.3,0.3-0.8,0.5-1.4,0.6l1.6,2.5c0.1,0.1,0.2,0.2,0.2,0.3c0.1,0,0.1,0.1,0.3,0.1V32h-1.9v-0.2c0.1,0,0.2,0,0.2,0c0,0,0,0,0-0.1
				c0-0.1,0-0.1-0.1-0.1l-1.6-2.6h-2.4V31.5z M112.4,28.1c0.5,0,0.9-0.1,1.1-0.3c0.2-0.2,0.3-0.5,0.3-0.8c0-0.2,0-0.3-0.1-0.4
				c0-0.1-0.1-0.2-0.2-0.3c-0.1-0.1-0.3-0.1-0.5-0.2c-0.2,0-0.4-0.1-0.8-0.1h-2.8v2.1H112.4z"/>
			<path d="M126,25.6c0-0.1,0-0.2-0.1-0.2c0-0.1-0.1-0.1-0.2-0.1v-0.2h5.5c0.2,0,0.4,0,0.4-0.1c0.1,0,0.1-0.1,0.1-0.2h0.2v1.5h-0.2
				c0-0.1,0-0.2-0.1-0.3s-0.2-0.1-0.4-0.1h-4.1V28h2.6c0.2,0,0.3,0,0.4-0.1c0.1-0.1,0.2-0.1,0.2-0.3h0.2v1.6h-0.2
				c0-0.1,0-0.2-0.1-0.3c-0.1-0.1-0.2-0.1-0.4-0.1h-2.7v2.2h4.4c0.2,0,0.3,0,0.4-0.1s0.1-0.2,0.1-0.3h0.2v1.6H132
				c0-0.2-0.2-0.2-0.5-0.2h-5.8v-0.2c0.1,0,0.2,0,0.2-0.1c0-0.1,0.1-0.1,0.1-0.2V25.6z"/>
			<path d="M142.6,31.8c0.1,0,0.2,0,0.3-0.1c0-0.1,0.1-0.1,0.1-0.2v-5.9c0-0.1,0-0.2-0.1-0.2s-0.1-0.1-0.3-0.1v-0.2h2.2v0.2
				c-0.2,0-0.3,0.1-0.3,0.2c0,0.1,0,0.1,0.1,0.1l2.1,4.2l2.2-4.2c0,0,0-0.1,0-0.1s0-0.1,0-0.1c0,0,0-0.1-0.1-0.1c0,0-0.1,0-0.3,0
				v-0.2h2.3v0.2c-0.1,0-0.2,0-0.3,0.1s-0.1,0.1-0.1,0.2v5.9c0,0.1,0,0.2,0.1,0.2s0.1,0.1,0.3,0.1V32h-1.8v-0.2c0.1,0,0.2,0,0.3-0.1
				c0-0.1,0.1-0.1,0.1-0.2v-5.2l0,0l-2.8,5.5l-2.8-5.5l0,0v5.2c0,0.1,0,0.2,0.1,0.2s0.1,0.1,0.2,0.1V32h-1.6V31.8z"/>
			<path d="M161.7,31.8c0.1,0,0.2,0,0.2-0.1c0-0.1,0.1-0.1,0.1-0.2v-5.9c0-0.1,0-0.2-0.1-0.2c0-0.1-0.1-0.1-0.2-0.1v-0.2h1.7v0.2
				c-0.1,0-0.2,0-0.2,0.1c0,0.1-0.1,0.1-0.1,0.2v5.9c0,0.1,0,0.2,0.1,0.2c0,0.1,0.1,0.1,0.2,0.1V32h-1.7V31.8z"/>
			<path d="M174.9,31.2c0,0.1-0.1,0.2-0.1,0.3c0,0.1-0.1,0.2-0.1,0.2c0,0.1,0.1,0.1,0.2,0.1V32h-1.6v-0.2c0.1,0,0.1,0,0.1,0
				c0,0,0.1,0,0.1-0.1c0,0,0.1-0.1,0.1-0.2c0-0.1,0.1-0.2,0.2-0.3l2.4-5.3c0.1-0.1,0.1-0.3,0.2-0.3c0-0.1,0.1-0.1,0.1-0.2
				c0-0.1-0.1-0.2-0.2-0.2v-0.2h1.9v0.2c-0.1,0-0.2,0.1-0.2,0.2c0,0.1,0,0.1,0.1,0.2c0,0.1,0.1,0.2,0.2,0.3l2.5,5.2
				c0.1,0.2,0.1,0.3,0.2,0.4c0,0.1,0.1,0.2,0.1,0.2c0,0,0.1,0.1,0.1,0.1c0,0,0.1,0,0.2,0V32h-1.8v-0.2c0.1,0,0.2,0,0.2,0
				c0,0,0.1-0.1,0.1-0.1c0,0,0-0.1,0-0.1c0,0-0.1-0.1-0.1-0.3l-0.5-1h-3.7L174.9,31.2z M178.6,29.3l-1.5-3.1l-1.4,3.1H178.6z"/>
			<path d="M192.8,25.3c-0.1,0-0.2,0-0.2,0.1c0,0.1-0.1,0.2-0.1,0.3v5.5h4.4c0.3,0,0.5-0.1,0.5-0.4h0.2v1.5h-0.2
				c0-0.2-0.2-0.2-0.5-0.2h-5.8v-0.2c0.1,0,0.2,0,0.2-0.1c0-0.1,0.1-0.1,0.1-0.2v-5.9c0-0.1,0-0.2-0.1-0.2c0-0.1-0.1-0.1-0.2-0.1
				v-0.2h1.7V25.3z"/>
		</g>
	</g>
</g>
</svg>
