<?xml version="1.0" encoding="utf-8"?>
<!-- Generator: Adobe Illustrator 19.2.1, SVG Export Plug-In . SVG Version: 6.00 Build 0)  -->
<svg version="1.1" xmlns="http://www.w3.org/2000/svg" xmlns:xlink="http://www.w3.org/1999/xlink" x="0px" y="0px"
	 viewBox="0 0 198 169.3" style="enable-background:new 0 0 198 169.3;" xml:space="preserve">
<style type="text/css">
	.st0{display:none;}
	.st1{display:inline;fill:#1E2736;stroke:#000000;stroke-miterlimit:10;}
	.st2{display:inline;}
	.st3{fill:#C3CEE0;}
	.st4{fill:#FFFFFF;}
</style>
<g id="Layer_2" class="st0">
	<rect x="-321.7" y="-185" class="st1" width="806" height="604"/>
</g>
<g id="Layer_1" class="st0">
	<g class="st2">
		<path class="st3" d="M136.1,47.5c-6.5,4.5-11,5.1-11,5.1s0.2-20.2-11.5-24.9c-11.7-4.7-34.4-14.4-35.1-23.1c0,0-5,10.6,0.9,18
			c2.4,3,4.8,5.1,6.9,6.6c1.2,0.7,2.8,1.1,4,1.4c17.2,3.1,15.6,12.9,15.6,12.9s0.2-4.1-6-8.6c-1.6-1.1-4.1-2.4-8.7-2.9
			c-3.2-0.4-9.2,1-16.7-0.4c-8.1-1.4-17-7-17-7s-1.4,9.4,9.5,16.4c10.8,7,9.9,4.9,20,18.1c1.6,2.1,8.6,6.2,8.6,6.2s-21,4.9-28.6,6.2
			c-7.6,1.3-16.7,4.5-8.6,10.6c8.1,6.1,8.9,7.2,16.7,6.1c7.7-1.1,14.1-10.1,19.6-10.3c0,0,22.2,1.8,29.2,0.2
			c7.1-1.6,15.3-4.2,17.4-18.8c0,0,0.9-6,6.5-6.5c5.6-0.5,6.2-1.8,6.2-1.8c0,0-0.3-0.1-3.1-1.8C147.6,47.3,142.6,43,136.1,47.5z"/>
		<g>
			<path class="st3" d="M27.6,77.6c1.8-0.9,3.8-1.5,5.9-1.6v-6.2c0-9.7-1.2-17.1-6.9-17.3c0.9,4.3,0.9,8.8,0.9,11.4V77.6z
				 M81.9,112.9c-5.9-5-14.5-6.4-19.9-6.8L45.5,87.3c-4.1-4.7-12.2-7-17.1-2.5c-4.9,4.6-3.4,13.1,0.7,17.8c0,0,5.1,5.3,12.5,14l0,0
				c0.8,0.9,1.6,1.9,2.4,2.9c1.7,2,5.3,8.8,3.3,13.3c-0.3-0.2-0.5-0.5-0.8-0.8l-7.5-8.3c-8.4-10-14.5-16.4-14.6-16.5
				c-5.8-6.5-7.7-17-2.7-24.4V63.9c0-9.9-1.2-17.4-7.1-17.4C6.5,46.6,4,52.5,4,64.3s0,17.7,0,27c0,11,8.8,26.6,21.2,40.7
				c3.9,4.4,9.6,10.1,18.6,14.6c6.6,3.3,8.1,6.4,8.1,18.3h40.8C92.7,129.4,90.5,120.3,81.9,112.9z M169.6,63.9c0-2.6,0-7.1,0.9-11.4
				c-5.7,0.2-6.9,7.6-6.9,17.3V76c2.1,0.2,4.1,0.7,5.9,1.6V63.9z M104.6,164.9h40.8c0-11.8,1.5-15,8.1-18.3
				c8.9-4.4,14.7-10.2,18.6-14.6c12.5-14.1,21.2-29.8,21.2-40.7c0-9.3,0-15.2,0-27s-2.5-17.7-10.6-17.7c-5.9,0-7.1,7.5-7.1,17.4
				v18.8c5,7.3,3.1,17.8-2.7,24.4c-0.1,0.1-6.2,6.5-14.6,16.5l-7.5,8.3c-0.2,0.3-0.5,0.6-0.8,0.8c-1.9-4.5,1.7-11.4,3.3-13.3
				c0.8-1,1.6-1.9,2.4-2.9l0,0c7.4-8.6,12.5-14,12.5-14c4.1-4.7,5.6-13.2,0.7-17.8c-4.9-4.6-13-2.2-17.1,2.5l-16.5,18.8
				c-5.3,0.4-14,1.7-19.9,6.8C106.7,120.3,104.6,129.4,104.6,164.9z"/>
		</g>
		<text transform="matrix(1 0 0 1 1.6234 185.2178)" class="st3" style="font-family:'Copperplate-Bold'; font-size:18.6987px;">BONANZA FUNERAL</text>
		
			<text transform="matrix(1 0 0 1 3.8153 199.9648)" class="st3" style="font-family:'Copperplate-Light'; font-size:13.0462px; letter-spacing:8;">PLAN GREMIAL</text>
	</g>
</g>
<g id="Layer_1_copy">
	<g>
		<path class="st4" d="M136.1,47.5c-6.5,4.5-11,5.1-11,5.1s0.2-20.2-11.5-24.9c-11.7-4.7-34.4-14.4-35.1-23.1c0,0-5,10.6,0.9,18
			c2.4,3,4.8,5.1,6.9,6.6c1.2,0.7,2.8,1.1,4,1.4c17.2,3.1,15.6,12.9,15.6,12.9s0.2-4.1-6-8.6c-1.6-1.1-4.1-2.4-8.7-2.9
			c-3.2-0.4-9.2,1-16.7-0.4c-8.1-1.4-17-7-17-7s-1.4,9.4,9.5,16.4c10.8,7,9.9,4.9,20,18.1c1.6,2.1,8.6,6.2,8.6,6.2s-21,4.9-28.6,6.2
			c-7.6,1.3-16.7,4.5-8.6,10.6c8.1,6.1,8.9,7.2,16.7,6.1c7.7-1.1,14.1-10.1,19.6-10.3c0,0,22.2,1.8,29.2,0.2
			c7.1-1.6,15.3-4.2,17.4-18.8c0,0,0.9-6,6.5-6.5c5.6-0.5,6.2-1.8,6.2-1.8c0,0-0.3-0.1-3.1-1.8C147.6,47.3,142.6,43,136.1,47.5z"/>
		<g>
			<path class="st4" d="M27.6,77.6c1.8-0.9,3.8-1.5,5.9-1.6v-6.2c0-9.7-1.2-17.1-6.9-17.3c0.9,4.3,0.9,8.8,0.9,11.4V77.6z
				 M81.9,112.9c-5.9-5-14.5-6.4-19.9-6.8L45.5,87.3c-4.1-4.7-12.2-7-17.1-2.5c-4.9,4.6-3.4,13.1,0.7,17.8c0,0,5.1,5.3,12.5,14l0,0
				c0.8,0.9,1.6,1.9,2.4,2.9c1.7,2,5.3,8.8,3.3,13.3c-0.3-0.2-0.5-0.5-0.8-0.8l-7.5-8.3c-8.4-10-14.5-16.4-14.6-16.5
				c-5.8-6.5-7.7-17-2.7-24.4V63.9c0-9.9-1.2-17.4-7.1-17.4C6.5,46.6,4,52.5,4,64.3s0,17.7,0,27c0,11,8.8,26.6,21.2,40.7
				c3.9,4.4,9.6,10.1,18.6,14.6c6.6,3.3,8.1,6.4,8.1,18.3h40.8C92.7,129.4,90.5,120.3,81.9,112.9z M169.6,63.9c0-2.6,0-7.1,0.9-11.4
				c-5.7,0.2-6.9,7.6-6.9,17.3V76c2.1,0.2,4.1,0.7,5.9,1.6V63.9z M104.6,164.9h40.8c0-11.8,1.5-15,8.1-18.3
				c8.9-4.4,14.7-10.2,18.6-14.6c12.5-14.1,21.2-29.8,21.2-40.7c0-9.3,0-15.2,0-27s-2.5-17.7-10.6-17.7c-5.9,0-7.1,7.5-7.1,17.4
				v18.8c5,7.3,3.1,17.8-2.7,24.4c-0.1,0.1-6.2,6.5-14.6,16.5l-7.5,8.3c-0.2,0.3-0.5,0.6-0.8,0.8c-1.9-4.5,1.7-11.4,3.3-13.3
				c0.8-1,1.6-1.9,2.4-2.9l0,0c7.4-8.6,12.5-14,12.5-14c4.1-4.7,5.6-13.2,0.7-17.8c-4.9-4.6-13-2.2-17.1,2.5l-16.5,18.8
				c-5.3,0.4-14,1.7-19.9,6.8C106.7,120.3,104.6,129.4,104.6,164.9z"/>
		</g>
		<g>
			<path class="st4" d="M3.6,175.9c0-0.1,0-0.2-0.1-0.2c-0.1-0.1-0.2-0.1-0.4-0.1v-0.2h7.1c0.5,0,1,0.1,1.4,0.2s0.8,0.3,1.1,0.5
				c0.3,0.2,0.6,0.5,0.7,0.8c0.2,0.3,0.3,0.7,0.3,1.2c0,0.6-0.2,1-0.5,1.4c-0.3,0.3-0.8,0.6-1.3,0.7v0c0.6,0.2,1.2,0.4,1.6,0.8
				c0.4,0.4,0.6,0.9,0.6,1.6c0,0.4-0.1,0.7-0.2,1.1c-0.1,0.3-0.4,0.6-0.7,0.9c-0.3,0.2-0.7,0.4-1.2,0.6c-0.5,0.1-1.1,0.2-1.7,0.2
				H3.1V185c0.2,0,0.4-0.1,0.4-0.1c0.1-0.1,0.1-0.1,0.1-0.2V175.9z M8.9,179.1c0.4,0,0.7,0,1,0s0.5-0.1,0.6-0.1
				c0.1-0.1,0.3-0.1,0.3-0.3c0.1-0.1,0.1-0.3,0.1-0.4c0-0.2,0-0.3-0.1-0.4c-0.1-0.1-0.2-0.2-0.3-0.3c-0.1-0.1-0.4-0.1-0.6-0.1
				s-0.6,0-1,0H6.4v1.7H8.9z M9.6,183.2c0.7,0,1.1-0.1,1.4-0.3c0.3-0.2,0.4-0.5,0.4-0.9c0-0.4-0.1-0.7-0.4-0.9
				c-0.3-0.2-0.7-0.3-1.4-0.3H6.4v2.2H9.6z"/>
			<path class="st4" d="M21.9,175.3c0.8,0,1.5,0.1,2.3,0.3c0.7,0.2,1.3,0.5,1.9,1s1,0.9,1.3,1.6c0.3,0.6,0.5,1.3,0.5,2.2
				c0,0.8-0.2,1.5-0.5,2.2c-0.3,0.6-0.7,1.1-1.3,1.6s-1.1,0.7-1.9,0.9c-0.7,0.2-1.5,0.3-2.3,0.3s-1.5-0.1-2.3-0.3
				c-0.7-0.2-1.3-0.5-1.9-0.9c-0.5-0.4-1-0.9-1.3-1.6c-0.3-0.6-0.5-1.3-0.5-2.2c0-0.8,0.2-1.5,0.5-2.2c0.3-0.6,0.7-1.1,1.3-1.6
				c0.5-0.4,1.1-0.7,1.9-1C20.3,175.4,21.1,175.3,21.9,175.3z M21.9,177.6c-0.4,0-0.8,0.1-1.2,0.2c-0.4,0.1-0.7,0.3-1,0.5
				c-0.3,0.2-0.5,0.5-0.7,0.9s-0.3,0.7-0.3,1.2c0,0.4,0.1,0.8,0.3,1.2s0.4,0.6,0.7,0.9c0.3,0.2,0.6,0.4,1,0.5
				c0.4,0.1,0.8,0.2,1.2,0.2c0.4,0,0.8-0.1,1.2-0.2c0.4-0.1,0.7-0.3,1-0.5c0.3-0.2,0.5-0.5,0.7-0.9s0.3-0.7,0.3-1.2
				c0-0.4-0.1-0.8-0.3-1.2s-0.4-0.6-0.7-0.9c-0.3-0.2-0.6-0.4-1-0.5C22.7,177.6,22.3,177.6,21.9,177.6z"/>
			<path class="st4" d="M30.7,175.9c0-0.1,0-0.2-0.1-0.2c-0.1-0.1-0.2-0.1-0.4-0.1v-0.2h4.5v0.2c-0.2,0-0.4,0-0.4,0.1
				c-0.1,0-0.1,0.1-0.1,0.2c0,0,0.1,0.1,0.2,0.3c0.2,0.2,0.4,0.4,0.6,0.7c0.3,0.3,0.6,0.6,0.9,1c0.3,0.4,0.7,0.7,1,1.1
				c0.3,0.4,0.7,0.7,1,1c0.3,0.3,0.6,0.6,0.8,0.9v-5c0-0.2-0.1-0.3-0.4-0.3v-0.2h3.4v0.2c-0.2,0-0.4,0.1-0.4,0.1
				c-0.1,0.1-0.1,0.1-0.1,0.2v8.7c0,0.1,0,0.2,0.1,0.2c0.1,0.1,0.2,0.1,0.4,0.1v0.2h-3.6V185c0.2,0,0.3,0,0.3-0.1
				c0.1,0,0.1-0.1,0.1-0.1c0,0,0-0.1-0.1-0.1s-0.1-0.2-0.2-0.3c-0.1-0.1-0.3-0.3-0.6-0.6c-0.2-0.3-0.6-0.6-1-1s-0.9-1-1.5-1.6
				c-0.6-0.6-1.3-1.4-2.1-2.3v5.9c0,0.1,0,0.2,0.1,0.2c0.1,0.1,0.2,0.1,0.4,0.1v0.2h-3.6V185c0.2,0,0.4-0.1,0.4-0.1
				c0.1-0.1,0.1-0.1,0.1-0.2V175.9z"/>
			<path class="st4" d="M46.9,184.8c0,0.1,0,0.1,0.1,0.1c0,0,0.1,0,0.3,0v0.2h-3.3V185c0.1,0,0.2-0.1,0.3-0.1
				c0.1-0.1,0.1-0.2,0.2-0.3c0-0.1,0.1-0.2,0.2-0.5c0.1-0.3,0.2-0.6,0.4-1c0.2-0.4,0.3-0.9,0.5-1.4c0.2-0.5,0.4-1,0.6-1.6
				c0.2-0.5,0.4-1,0.6-1.6s0.4-1,0.5-1.4c0.1-0.4,0.3-0.7,0.4-1c0.1-0.2,0.1-0.4,0.1-0.4c0-0.1,0-0.1-0.1-0.1c-0.1,0-0.2,0-0.3-0.1
				v-0.2h4.9v0.2c-0.1,0-0.2,0-0.2,0.1c-0.1,0-0.1,0.1-0.1,0.2c0,0,0.1,0.2,0.2,0.5c0.1,0.3,0.3,0.7,0.5,1.2c0.2,0.5,0.4,1,0.6,1.6
				s0.5,1.2,0.8,1.9c0.3,0.6,0.5,1.2,0.8,1.8s0.5,1.1,0.7,1.6c0.1,0.2,0.2,0.4,0.3,0.4c0.1,0.1,0.2,0.1,0.3,0.1v0.2h-3.7V185
				c0.2,0,0.4-0.1,0.4-0.2c0,0,0-0.1-0.1-0.3c-0.1-0.2-0.1-0.3-0.2-0.5c-0.1-0.2-0.1-0.4-0.2-0.6s-0.1-0.3-0.1-0.4h-4.4
				c-0.1,0.3-0.2,0.6-0.3,0.8s-0.1,0.4-0.2,0.5c0,0.1-0.1,0.2-0.1,0.3C46.9,184.7,46.9,184.8,46.9,184.8z M51.5,181.6l-1.8-4.5
				l-1.7,4.5H51.5z"/>
			<path class="st4" d="M58.7,175.9c0-0.1,0-0.2-0.1-0.2c-0.1-0.1-0.2-0.1-0.4-0.1v-0.2h4.5v0.2c-0.2,0-0.4,0-0.4,0.1
				c-0.1,0-0.1,0.1-0.1,0.2c0,0,0.1,0.1,0.2,0.3c0.2,0.2,0.4,0.4,0.6,0.7c0.3,0.3,0.6,0.6,0.9,1c0.3,0.4,0.7,0.7,1,1.1
				c0.3,0.4,0.7,0.7,1,1c0.3,0.3,0.6,0.6,0.8,0.9v-5c0-0.2-0.1-0.3-0.4-0.3v-0.2h3.4v0.2c-0.2,0-0.4,0.1-0.4,0.1
				c-0.1,0.1-0.1,0.1-0.1,0.2v8.7c0,0.1,0,0.2,0.1,0.2c0.1,0.1,0.2,0.1,0.4,0.1v0.2h-3.6V185c0.2,0,0.3,0,0.3-0.1
				c0.1,0,0.1-0.1,0.1-0.1c0,0,0-0.1-0.1-0.1s-0.1-0.2-0.2-0.3c-0.1-0.1-0.3-0.3-0.6-0.6c-0.2-0.3-0.6-0.6-1-1s-0.9-1-1.5-1.6
				c-0.6-0.6-1.3-1.4-2.1-2.3v5.9c0,0.1,0,0.2,0.1,0.2c0.1,0.1,0.2,0.1,0.4,0.1v0.2h-3.6V185c0.2,0,0.4-0.1,0.4-0.1
				c0.1-0.1,0.1-0.1,0.1-0.2V175.9z"/>
			<path class="st4" d="M81.4,183c0.1,0,0.2,0,0.2-0.1c0-0.1,0.1-0.2,0.1-0.3h0.2v3h-0.2c0-0.2-0.1-0.3-0.1-0.3c0,0-0.1-0.1-0.2-0.1
				h-9.6V185l5.4-7.4h-4.5c-0.1,0-0.2,0-0.2,0.1c-0.1,0.1-0.1,0.2-0.1,0.3h-0.2v-3.2h0.2c0,0.2,0.1,0.4,0.1,0.4
				c0,0.1,0.1,0.1,0.2,0.1h9.2v0.2l-5.4,7.4H81.4z"/>
			<path class="st4" d="M86.4,184.8c0,0.1,0,0.1,0.1,0.1c0,0,0.1,0,0.3,0v0.2h-3.3V185c0.1,0,0.2-0.1,0.3-0.1
				c0.1-0.1,0.1-0.2,0.2-0.3c0-0.1,0.1-0.2,0.2-0.5c0.1-0.3,0.2-0.6,0.4-1c0.2-0.4,0.3-0.9,0.5-1.4c0.2-0.5,0.4-1,0.6-1.6
				c0.2-0.5,0.4-1,0.6-1.6c0.2-0.5,0.4-1,0.5-1.4c0.1-0.4,0.3-0.7,0.4-1c0.1-0.2,0.1-0.4,0.1-0.4c0-0.1,0-0.1-0.1-0.1
				c-0.1,0-0.2,0-0.3-0.1v-0.2h4.9v0.2c-0.1,0-0.2,0-0.2,0.1c-0.1,0-0.1,0.1-0.1,0.2c0,0,0.1,0.2,0.2,0.5c0.1,0.3,0.3,0.7,0.5,1.2
				c0.2,0.5,0.4,1,0.6,1.6s0.5,1.2,0.8,1.9c0.3,0.6,0.5,1.2,0.8,1.8c0.2,0.6,0.5,1.1,0.7,1.6c0.1,0.2,0.2,0.4,0.3,0.4
				c0.1,0.1,0.2,0.1,0.3,0.1v0.2h-3.7V185c0.2,0,0.4-0.1,0.4-0.2c0,0,0-0.1-0.1-0.3c-0.1-0.2-0.1-0.3-0.2-0.5
				c-0.1-0.2-0.1-0.4-0.2-0.6c-0.1-0.2-0.1-0.3-0.1-0.4H87c-0.1,0.3-0.2,0.6-0.3,0.8c-0.1,0.2-0.1,0.4-0.2,0.5
				c0,0.1-0.1,0.2-0.1,0.3C86.4,184.7,86.4,184.8,86.4,184.8z M90.9,181.6l-1.8-4.5l-1.7,4.5H90.9z"/>
			<path class="st4" d="M113.3,178.1c0-0.2-0.1-0.3-0.1-0.4s-0.1-0.1-0.2-0.1h-6.2v1.7h4.2c0.1,0,0.2,0,0.2-0.1
				c0-0.1,0.1-0.2,0.1-0.3h0.2v3.1h-0.2c0-0.2-0.1-0.3-0.1-0.4s-0.1-0.1-0.2-0.1h-4.2v3.1c0,0.1,0,0.2,0.1,0.2
				c0.1,0.1,0.2,0.1,0.4,0.1v0.2h-3.9V185c0.2,0,0.4-0.1,0.4-0.1c0.1-0.1,0.1-0.1,0.1-0.2v-8.7c0-0.1,0-0.2-0.1-0.2
				c-0.1-0.1-0.2-0.1-0.4-0.1v-0.2h9.6c0.1,0,0.2,0,0.2-0.1s0.1-0.2,0.1-0.4h0.2v3.3H113.3z"/>
			<path class="st4" d="M123.9,175.9c0-0.1,0-0.2-0.1-0.2c-0.1-0.1-0.2-0.1-0.4-0.1v-0.2h3.9v0.2c-0.2,0-0.4,0.1-0.4,0.1
				c-0.1,0.1-0.1,0.1-0.1,0.2v5c0,0.8-0.1,1.5-0.4,2.1c-0.3,0.6-0.6,1-1.1,1.3c-0.5,0.3-1,0.6-1.6,0.7c-0.6,0.1-1.3,0.2-2,0.2
				c-0.7,0-1.4-0.1-2-0.2c-0.6-0.1-1.2-0.4-1.6-0.7c-0.5-0.3-0.8-0.8-1.1-1.3c-0.3-0.6-0.4-1.3-0.4-2.1v-5c0-0.1,0-0.2-0.1-0.2
				c-0.1-0.1-0.2-0.1-0.4-0.1v-0.2h3.9v0.2c-0.2,0-0.4,0.1-0.4,0.1c-0.1,0.1-0.1,0.1-0.1,0.2v5c0,0.7,0.2,1.2,0.6,1.6
				c0.4,0.3,1,0.5,1.7,0.5s1.3-0.2,1.7-0.5s0.6-0.8,0.6-1.6V175.9z"/>
			<path class="st4" d="M130.9,175.9c0-0.1,0-0.2-0.1-0.2c-0.1-0.1-0.2-0.1-0.4-0.1v-0.2h4.5v0.2c-0.2,0-0.4,0-0.4,0.1
				c-0.1,0-0.1,0.1-0.1,0.2c0,0,0.1,0.1,0.2,0.3s0.4,0.4,0.6,0.7c0.3,0.3,0.6,0.6,0.9,1c0.3,0.4,0.7,0.7,1,1.1c0.3,0.4,0.7,0.7,1,1
				s0.6,0.6,0.8,0.9v-5c0-0.2-0.1-0.3-0.4-0.3v-0.2h3.4v0.2c-0.2,0-0.4,0.1-0.4,0.1c-0.1,0.1-0.1,0.1-0.1,0.2v8.7
				c0,0.1,0,0.2,0.1,0.2c0.1,0.1,0.2,0.1,0.4,0.1v0.2h-3.6V185c0.2,0,0.3,0,0.3-0.1c0.1,0,0.1-0.1,0.1-0.1c0,0,0-0.1-0.1-0.1
				s-0.1-0.2-0.2-0.3c-0.1-0.1-0.3-0.3-0.6-0.6c-0.2-0.3-0.6-0.6-1-1s-0.9-1-1.5-1.6c-0.6-0.6-1.3-1.4-2.1-2.3v5.9
				c0,0.1,0,0.2,0.1,0.2c0.1,0.1,0.2,0.1,0.4,0.1v0.2h-3.6V185c0.2,0,0.4-0.1,0.4-0.1c0.1-0.1,0.1-0.1,0.1-0.2V175.9z"/>
			<path class="st4" d="M152.3,181.6c0-0.1-0.1-0.2-0.2-0.3s-0.2-0.1-0.4-0.1h-3.5v1.7h6c0.1,0,0.2,0,0.2-0.1s0.1-0.2,0.1-0.5h0.2
				v3.2h-0.2c0-0.2-0.1-0.3-0.1-0.3c0,0-0.1-0.1-0.2-0.1h-9.3V185c0.2,0,0.4-0.1,0.4-0.1c0.1-0.1,0.1-0.1,0.1-0.2v-8.7
				c0-0.1,0-0.2-0.1-0.2c-0.1-0.1-0.2-0.1-0.4-0.1v-0.2h9.3c0.1,0,0.2,0,0.2-0.1s0.1-0.2,0.1-0.4h0.2v3.3h-0.2
				c0-0.2-0.1-0.4-0.1-0.4s-0.1-0.1-0.2-0.1h-6v1.6h3.5c0.2,0,0.3,0,0.4-0.1s0.1-0.2,0.2-0.3h0.2v2.9H152.3z"/>
			<path class="st4" d="M160.7,184.7c0,0.1,0,0.2,0.1,0.2c0.1,0.1,0.2,0.1,0.4,0.1v0.2h-3.9V185c0.2,0,0.4-0.1,0.4-0.1
				c0.1-0.1,0.1-0.1,0.1-0.2v-8.7c0-0.1,0-0.2-0.1-0.2c-0.1-0.1-0.2-0.1-0.4-0.1v-0.2h6.8c1.4,0,2.4,0.3,3,0.8
				c0.6,0.5,0.9,1.3,0.9,2.3c0,0.9-0.3,1.5-0.8,2s-1.1,0.8-1.9,1l2.2,3.1c0.2,0.2,0.3,0.3,0.5,0.3v0.2h-3.9V185
				c0.3,0,0.4-0.1,0.4-0.3c0,0,0-0.1-0.1-0.3c-0.1-0.2-0.2-0.3-0.4-0.5s-0.3-0.4-0.5-0.7c-0.2-0.2-0.4-0.5-0.5-0.7
				c-0.2-0.2-0.3-0.4-0.4-0.6c-0.1-0.2-0.2-0.3-0.2-0.4h-1.8V184.7z M163.9,179.5c0.5,0,0.9-0.1,1.1-0.3c0.2-0.2,0.3-0.4,0.3-0.7
				s-0.1-0.5-0.3-0.7c-0.2-0.2-0.6-0.3-1.1-0.3h-3.1v2.1H163.9z"/>
			<path class="st4" d="M173.1,184.8c0,0.1,0,0.1,0.1,0.1c0,0,0.1,0,0.3,0v0.2h-3.3V185c0.1,0,0.2-0.1,0.3-0.1
				c0.1-0.1,0.1-0.2,0.2-0.3c0-0.1,0.1-0.2,0.2-0.5s0.2-0.6,0.4-1c0.2-0.4,0.3-0.9,0.5-1.4c0.2-0.5,0.4-1,0.6-1.6s0.4-1,0.6-1.6
				c0.2-0.5,0.4-1,0.5-1.4c0.1-0.4,0.3-0.7,0.4-1c0.1-0.2,0.1-0.4,0.1-0.4c0-0.1,0-0.1-0.1-0.1c-0.1,0-0.2,0-0.3-0.1v-0.2h4.9v0.2
				c-0.1,0-0.2,0-0.2,0.1c-0.1,0-0.1,0.1-0.1,0.2c0,0,0.1,0.2,0.2,0.5c0.1,0.3,0.3,0.7,0.5,1.2c0.2,0.5,0.4,1,0.6,1.6
				s0.5,1.2,0.8,1.9c0.3,0.6,0.5,1.2,0.8,1.8c0.2,0.6,0.5,1.1,0.7,1.6c0.1,0.2,0.2,0.4,0.3,0.4c0.1,0.1,0.2,0.1,0.3,0.1v0.2h-3.7
				V185c0.2,0,0.4-0.1,0.4-0.2c0,0,0-0.1-0.1-0.3c-0.1-0.2-0.1-0.3-0.2-0.5c-0.1-0.2-0.1-0.4-0.2-0.6c-0.1-0.2-0.1-0.3-0.1-0.4h-4.4
				c-0.1,0.3-0.2,0.6-0.3,0.8c-0.1,0.2-0.1,0.4-0.2,0.5c0,0.1-0.1,0.2-0.1,0.3C173.1,184.7,173.1,184.8,173.1,184.8z M177.7,181.6
				l-1.8-4.5l-1.7,4.5H177.7z"/>
			<path class="st4" d="M194.2,182.9c0.1,0,0.2,0,0.2-0.1s0.1-0.2,0.1-0.4h0.2v3.2h-0.2c0-0.2-0.1-0.3-0.1-0.4s-0.1-0.1-0.2-0.1
				h-9.8V185c0.2,0,0.4-0.1,0.4-0.1c0.1-0.1,0.1-0.1,0.1-0.2v-8.7c0-0.1,0-0.2-0.1-0.2c-0.1-0.1-0.2-0.1-0.4-0.1v-0.2h3.9v0.2
				c-0.2,0-0.4,0.1-0.4,0.1c-0.1,0.1-0.1,0.1-0.1,0.2v7H194.2z"/>
		</g>
		<g>
			<path class="st4" d="M5.4,193.6c0-0.1,0-0.2-0.1-0.2s-0.1-0.1-0.2-0.1v-0.2h4.4c0.9,0,1.5,0.2,1.9,0.5c0.4,0.3,0.6,0.8,0.6,1.4
				c0,0.7-0.2,1.2-0.6,1.5c-0.4,0.4-1,0.5-1.8,0.5h-3v2.5c0,0.1,0,0.2,0.1,0.2c0,0.1,0.1,0.1,0.2,0.1v0.2H5v-0.2
				c0.1,0,0.2,0,0.2-0.1s0.1-0.1,0.1-0.2V193.6z M9.4,196.1c0.5,0,0.9-0.1,1.1-0.3c0.2-0.2,0.3-0.5,0.3-0.8c0-0.3-0.1-0.6-0.3-0.8
				S10,194,9.4,194H6.5v2.1H9.4z"/>
			<path class="st4" d="M23.7,193.3c-0.1,0-0.2,0-0.2,0.1c0,0.1-0.1,0.2-0.1,0.3v5.5h4.4c0.3,0,0.5-0.1,0.5-0.4h0.2v1.5h-0.2
				c0-0.2-0.2-0.2-0.5-0.2H22v-0.2c0.1,0,0.2,0,0.2-0.1s0.1-0.1,0.1-0.2v-5.9c0-0.1,0-0.2-0.1-0.2s-0.1-0.1-0.2-0.1v-0.2h1.7V193.3z
				"/>
			<path class="st4" d="M38.9,199.2c0,0.1-0.1,0.2-0.1,0.3s-0.1,0.2-0.1,0.2c0,0.1,0.1,0.1,0.2,0.1v0.2h-1.6v-0.2c0.1,0,0.1,0,0.1,0
				c0,0,0.1,0,0.1-0.1c0,0,0.1-0.1,0.1-0.2c0-0.1,0.1-0.2,0.2-0.3l2.4-5.3c0.1-0.1,0.1-0.3,0.2-0.3c0-0.1,0.1-0.1,0.1-0.2
				c0-0.1-0.1-0.2-0.2-0.2v-0.2h1.9v0.2c-0.1,0-0.2,0.1-0.2,0.2c0,0.1,0,0.1,0.1,0.2c0,0.1,0.1,0.2,0.2,0.3l2.5,5.2
				c0.1,0.2,0.1,0.3,0.2,0.4s0.1,0.2,0.1,0.2c0,0,0.1,0.1,0.1,0.1c0,0,0.1,0,0.2,0v0.2h-1.8v-0.2c0.1,0,0.2,0,0.2,0s0.1-0.1,0.1-0.1
				c0,0,0-0.1,0-0.1c0,0-0.1-0.1-0.1-0.3l-0.5-1h-3.7L38.9,199.2z M42.6,197.3l-1.5-3.1l-1.4,3.1H42.6z"/>
			<path class="st4" d="M61.4,198.2v-4.7c0-0.1,0-0.2-0.1-0.2c0-0.1-0.1-0.1-0.2-0.1v-0.2h1.6v0.2c-0.1,0-0.2,0-0.2,0.1
				c0,0.1-0.1,0.1-0.1,0.2v5.9c0,0.1,0,0.2,0.1,0.2c0,0.1,0.1,0.1,0.2,0.1v0.2H61v-0.2c0.2,0,0.3,0,0.3-0.1c0-0.1,0-0.1-0.1-0.2
				c0,0-0.1-0.1-0.1-0.1l-4.6-5.3v5.3c0,0.1,0,0.2,0.1,0.2s0.1,0.1,0.2,0.1v0.2h-1.6v-0.2c0.1,0,0.2,0,0.2-0.1s0.1-0.1,0.1-0.2v-5.9
				c0-0.1,0-0.2-0.1-0.2s-0.1-0.1-0.2-0.1v-0.2h2.2v0.2c-0.1,0-0.2,0-0.2,0s-0.1,0.1-0.1,0.1c0,0,0,0.1,0,0.1c0,0,0,0.1,0.1,0.1
				L61.4,198.2L61.4,198.2z"/>
			<path class="st4" d="M90,197.4c-0.3,0-0.5,0.1-0.5,0.3h-0.2v-1.5h0.2c0,0.3,0.2,0.4,0.5,0.4h2.8v0.2c-0.1,0-0.2,0-0.2,0.1
				c0,0,0,0.1,0,0.3v1.1c0,0.1,0,0.2,0.1,0.3c0,0,0.1,0.1,0.2,0.1v0.2c-0.6,0.5-1.3,0.8-1.9,1c-0.7,0.2-1.3,0.3-1.8,0.3
				c-0.6,0-1.1-0.1-1.6-0.2c-0.5-0.2-0.9-0.4-1.3-0.7c-0.4-0.3-0.6-0.7-0.8-1.1c-0.2-0.4-0.3-0.9-0.3-1.4c0-0.5,0.1-1,0.3-1.4
				c0.2-0.4,0.5-0.8,0.8-1.1c0.3-0.3,0.8-0.6,1.2-0.8s1-0.3,1.5-0.3s1,0,1.4,0.1c0.4,0.1,0.7,0.2,0.9,0.3c0.2,0.1,0.4,0.2,0.6,0.3
				c0.1,0.1,0.2,0.1,0.3,0.1c0.1,0,0.1,0,0.1,0c0,0,0.1-0.1,0.1-0.1l0.2,0.1l-0.9,1.3l-0.2-0.1c0,0,0.1-0.1,0.1-0.2
				c0-0.1-0.1-0.2-0.2-0.3c-0.1-0.1-0.3-0.2-0.5-0.3c-0.2-0.1-0.5-0.2-0.8-0.3c-0.3-0.1-0.7-0.1-1-0.1c-0.5,0-0.9,0.1-1.3,0.2
				c-0.4,0.1-0.7,0.3-0.9,0.6c-0.2,0.2-0.4,0.5-0.5,0.8s-0.2,0.6-0.2,1c0,0.4,0.1,0.8,0.2,1.1s0.4,0.6,0.6,0.8
				c0.2,0.2,0.5,0.4,0.9,0.5c0.3,0.1,0.7,0.2,1,0.2c0.6,0,1.1-0.1,1.5-0.2c0.5-0.1,0.8-0.3,1.1-0.6v-1H90z"/>
			<path class="st4" d="M104.8,199.5c0,0.1,0,0.2,0.1,0.2c0,0.1,0.1,0.1,0.2,0.1v0.2h-1.7v-0.2c0.1,0,0.2,0,0.2-0.1
				c0-0.1,0.1-0.1,0.1-0.2v-5.9c0-0.1,0-0.2-0.1-0.2c0-0.1-0.1-0.1-0.2-0.1v-0.2h4.4c0.9,0,1.5,0.2,1.9,0.5c0.4,0.3,0.6,0.8,0.6,1.4
				c0,0.5-0.1,1-0.4,1.3c-0.3,0.3-0.8,0.5-1.4,0.6l1.6,2.5c0.1,0.1,0.2,0.2,0.2,0.3c0.1,0,0.1,0.1,0.3,0.1v0.2h-1.9v-0.2
				c0.1,0,0.2,0,0.2,0c0,0,0,0,0-0.1c0-0.1,0-0.1-0.1-0.1l-1.6-2.6h-2.4V199.5z M107.7,196.1c0.5,0,0.9-0.1,1.1-0.3
				c0.2-0.2,0.3-0.5,0.3-0.8c0-0.2,0-0.3-0.1-0.4c0-0.1-0.1-0.2-0.2-0.3c-0.1-0.1-0.3-0.1-0.5-0.2c-0.2,0-0.4-0.1-0.8-0.1h-2.8v2.1
				H107.7z"/>
			<path class="st4" d="M121.3,193.6c0-0.1,0-0.2-0.1-0.2c0-0.1-0.1-0.1-0.2-0.1v-0.2h5.5c0.2,0,0.4,0,0.4-0.1
				c0.1,0,0.1-0.1,0.1-0.2h0.2v1.5H127c0-0.1,0-0.2-0.1-0.3s-0.2-0.1-0.4-0.1h-4.1v2.1h2.6c0.2,0,0.3,0,0.4-0.1
				c0.1-0.1,0.2-0.1,0.2-0.3h0.2v1.6h-0.2c0-0.1,0-0.2-0.1-0.3c-0.1-0.1-0.2-0.1-0.4-0.1h-2.7v2.2h4.4c0.2,0,0.3,0,0.4-0.1
				s0.1-0.2,0.1-0.3h0.2v1.6h-0.2c0-0.2-0.2-0.2-0.5-0.2H121v-0.2c0.1,0,0.2,0,0.2-0.1c0-0.1,0.1-0.1,0.1-0.2V193.6z"/>
			<path class="st4" d="M137.9,199.8c0.1,0,0.2,0,0.3-0.1c0-0.1,0.1-0.1,0.1-0.2v-5.9c0-0.1,0-0.2-0.1-0.2s-0.1-0.1-0.3-0.1v-0.2
				h2.2v0.2c-0.2,0-0.3,0.1-0.3,0.2c0,0.1,0,0.1,0.1,0.1l2.1,4.2l2.2-4.2c0,0,0-0.1,0-0.1s0-0.1,0-0.1c0,0,0-0.1-0.1-0.1
				c0,0-0.1,0-0.3,0v-0.2h2.3v0.2c-0.1,0-0.2,0-0.3,0.1s-0.1,0.1-0.1,0.2v5.9c0,0.1,0,0.2,0.1,0.2s0.1,0.1,0.3,0.1v0.2h-1.8v-0.2
				c0.1,0,0.2,0,0.3-0.1s0.1-0.1,0.1-0.2v-5.2l0,0l-2.8,5.5l-2.8-5.5l0,0v5.2c0,0.1,0,0.2,0.1,0.2s0.1,0.1,0.2,0.1v0.2h-1.6V199.8z"
				/>
			<path class="st4" d="M157,199.8c0.1,0,0.2,0,0.2-0.1c0-0.1,0.1-0.1,0.1-0.2v-5.9c0-0.1,0-0.2-0.1-0.2c0-0.1-0.1-0.1-0.2-0.1v-0.2
				h1.7v0.2c-0.1,0-0.2,0-0.2,0.1c0,0.1-0.1,0.1-0.1,0.2v5.9c0,0.1,0,0.2,0.1,0.2c0,0.1,0.1,0.1,0.2,0.1v0.2H157V199.8z"/>
			<path class="st4" d="M170.2,199.2c0,0.1-0.1,0.2-0.1,0.3c0,0.1-0.1,0.2-0.1,0.2c0,0.1,0.1,0.1,0.2,0.1v0.2h-1.6v-0.2
				c0.1,0,0.1,0,0.1,0c0,0,0.1,0,0.1-0.1c0,0,0.1-0.1,0.1-0.2c0-0.1,0.1-0.2,0.2-0.3l2.4-5.3c0.1-0.1,0.1-0.3,0.2-0.3
				c0-0.1,0.1-0.1,0.1-0.2c0-0.1-0.1-0.2-0.2-0.2v-0.2h1.9v0.2c-0.1,0-0.2,0.1-0.2,0.2c0,0.1,0,0.1,0.1,0.2c0,0.1,0.1,0.2,0.2,0.3
				l2.5,5.2c0.1,0.2,0.1,0.3,0.2,0.4c0,0.1,0.1,0.2,0.1,0.2c0,0,0.1,0.1,0.1,0.1c0,0,0.1,0,0.2,0v0.2h-1.8v-0.2c0.1,0,0.2,0,0.2,0
				c0,0,0.1-0.1,0.1-0.1c0,0,0-0.1,0-0.1c0,0-0.1-0.1-0.1-0.3l-0.5-1h-3.7L170.2,199.2z M173.9,197.3l-1.5-3.1l-1.4,3.1H173.9z"/>
			<path class="st4" d="M188.1,193.3c-0.1,0-0.2,0-0.2,0.1c0,0.1-0.1,0.2-0.1,0.3v5.5h4.4c0.3,0,0.5-0.1,0.5-0.4h0.2v1.5h-0.2
				c0-0.2-0.2-0.2-0.5-0.2h-5.8v-0.2c0.1,0,0.2,0,0.2-0.1c0-0.1,0.1-0.1,0.1-0.2v-5.9c0-0.1,0-0.2-0.1-0.2c0-0.1-0.1-0.1-0.2-0.1
				v-0.2h1.7V193.3z"/>
		</g>
	</g>
</g>
</svg>
