<?xml version="1.0" encoding="utf-8"?>
<!-- Generator: Adobe Illustrator 19.2.1, SVG Export Plug-In . SVG Version: 6.00 Build 0)  -->
<svg version="1.1" id="Layer_1" xmlns="http://www.w3.org/2000/svg" xmlns:xlink="http://www.w3.org/1999/xlink" x="0px" y="0px"
	 viewBox="0 0 201.3 205.3" style="enable-background:new 0 0 201.3 205.3;" xml:space="preserve">
<style type="text/css">
	.st0{display:none;}
	.st1{display:inline;fill:#1E2736;stroke:#000000;stroke-miterlimit:10;}
	.st2{display:inline;}
	.st3{fill:#C3CEE0;}
	.st4{font-family:'Copperplate-Bold';}
	.st5{font-size:18.6987px;}
	.st6{font-family:'Copperplate-Light';}
	.st7{font-size:13.0462px;}
	.st8{letter-spacing:7;}
	.st9{fill:#FFFFFF;}
	.st10{fill:#18BC9C;}
</style>
<g id="Layer_2" class="st0">
	<rect x="-319.7" y="-186.3" class="st1" width="806" height="604"/>
</g>
<g id="Layer_1_1_" class="st0">
	<g class="st2">
		<path class="st3" d="M138.1,46.1c-6.5,4.5-11,5.1-11,5.1s0.2-20.2-11.5-24.9S81.2,11.9,80.5,3.2c0,0-5,10.6,0.9,18
			c2.4,3,4.8,5.1,6.9,6.6c1.2,0.7,2.8,1.1,4,1.4c17.2,3.1,15.6,12.9,15.6,12.9s0.2-4.1-6-8.6c-1.6-1.1-4.1-2.4-8.7-2.9
			c-3.2-0.4-9.2,1-16.7-0.4c-8.1-1.4-17-7-17-7s-1.4,9.4,9.5,16.4c10.8,7,9.9,4.9,20,18.1c1.6,2.1,8.6,6.2,8.6,6.2s-21,4.9-28.6,6.2
			s-16.7,4.5-8.6,10.6s8.9,7.2,16.7,6.1s14.1-10.1,19.6-10.3c0,0,22.2,1.8,29.2,0.2c7.1-1.6,15.3-4.2,17.4-18.8c0,0,0.9-6,6.5-6.5
			s6.2-1.8,6.2-1.8s-0.3-0.1-3.1-1.8C149.6,45.9,144.6,41.6,138.1,46.1z"/>
		<g>
			<path class="st3" d="M29.6,76.3c1.8-0.9,3.8-1.5,5.9-1.6v-6.2c0-9.7-1.2-17.1-6.9-17.3c0.9,4.3,0.9,8.8,0.9,11.4v13.7H29.6z
				 M83.9,111.6c-5.9-5-14.5-6.4-19.9-6.8L47.5,86c-4.1-4.7-12.2-7-17.1-2.5c-4.9,4.6-3.4,13.1,0.7,17.8c0,0,5.1,5.3,12.5,14l0,0
				c0.8,0.9,1.6,1.9,2.4,2.9c1.7,2,5.3,8.8,3.3,13.3c-0.3-0.2-0.5-0.5-0.8-0.8l-7.5-8.3c-8.4-10-14.5-16.4-14.6-16.5
				c-5.8-6.5-7.7-17-2.7-24.4V62.6c0-9.9-1.2-17.4-7.1-17.4C8.5,45.2,6,51.2,6,63s0,17.7,0,27c0,11,8.8,26.6,21.2,40.7
				c3.9,4.4,9.6,10.1,18.6,14.6c6.6,3.3,8.1,6.4,8.1,18.3h40.8C94.7,128.1,92.5,119,83.9,111.6z M171.6,62.6c0-2.6,0-7.1,0.9-11.4
				c-5.7,0.2-6.9,7.6-6.9,17.3v6.2c2.1,0.2,4.1,0.7,5.9,1.6V62.6H171.6z M106.6,163.6h40.8c0-11.8,1.5-15,8.1-18.3
				c8.9-4.4,14.7-10.2,18.6-14.6c12.5-14.1,21.2-29.8,21.2-40.7c0-9.3,0-15.2,0-27s-2.5-17.7-10.6-17.7c-5.9,0-7.1,7.5-7.1,17.4
				v18.8c5,7.3,3.1,17.8-2.7,24.4c-0.1,0.1-6.2,6.5-14.6,16.5l-7.5,8.3c-0.2,0.3-0.5,0.6-0.8,0.8c-1.9-4.5,1.7-11.4,3.3-13.3
				c0.8-1,1.6-1.9,2.4-2.9l0,0c7.4-8.6,12.5-14,12.5-14c4.1-4.7,5.6-13.2,0.7-17.8c-4.9-4.6-13-2.2-17.1,2.5l-16.5,18.8
				c-5.3,0.4-14,1.7-19.9,6.8C108.7,119,106.6,128.1,106.6,163.6z"/>
		</g>
		<text transform="matrix(1 0 0 1 3.6234 183.8844)" class="st3 st4 st5">BONANZA FUNERAL</text>
		<text transform="matrix(1 0 0 1 5.8153 198.6315)" class="st3 st6 st7 st8">PLAN GREMIAL</text>
	</g>
</g>
<g id="Layer_1_copy">
	<g>
		<path class="st9" d="M138.1,46.1c-6.5,4.5-11,5.1-11,5.1s0.2-20.2-11.5-24.9S81.2,11.9,80.5,3.2c0,0-5,10.6,0.9,18
			c2.4,3,4.8,5.1,6.9,6.6c1.2,0.7,2.8,1.1,4,1.4c17.2,3.1,15.6,12.9,15.6,12.9s0.2-4.1-6-8.6c-1.6-1.1-4.1-2.4-8.7-2.9
			c-3.2-0.4-9.2,1-16.7-0.4c-8.1-1.4-17-7-17-7s-1.4,9.4,9.5,16.4c10.8,7,9.9,4.9,20,18.1c1.6,2.1,8.6,6.2,8.6,6.2s-21,4.9-28.6,6.2
			s-16.7,4.5-8.6,10.6s8.9,7.2,16.7,6.1s14.1-10.1,19.6-10.3c0,0,22.2,1.8,29.2,0.2c7.1-1.6,15.3-4.2,17.4-18.8c0,0,0.9-6,6.5-6.5
			s6.2-1.8,6.2-1.8s-0.3-0.1-3.1-1.8C149.6,45.9,144.6,41.6,138.1,46.1z"/>
		<g>
			<path class="st10" d="M29.6,76.3c1.8-0.9,3.8-1.5,5.9-1.6v-6.2c0-9.7-1.2-17.1-6.9-17.3c0.9,4.3,0.9,8.8,0.9,11.4v13.7H29.6z
				 M83.9,111.6c-5.9-5-14.5-6.4-19.9-6.8L47.5,86c-4.1-4.7-12.2-7-17.1-2.5c-4.9,4.6-3.4,13.1,0.7,17.8c0,0,5.1,5.3,12.5,14l0,0
				c0.8,0.9,1.6,1.9,2.4,2.9c1.7,2,5.3,8.8,3.3,13.3c-0.3-0.2-0.5-0.5-0.8-0.8l-7.5-8.3c-8.4-10-14.5-16.4-14.6-16.5
				c-5.8-6.5-7.7-17-2.7-24.4V62.6c0-9.9-1.2-17.4-7.1-17.4C8.5,45.2,6,51.2,6,63s0,17.7,0,27c0,11,8.8,26.6,21.2,40.7
				c3.9,4.4,9.6,10.1,18.6,14.6c6.6,3.3,8.1,6.4,8.1,18.3h40.8C94.7,128.1,92.5,119,83.9,111.6z M171.6,62.6c0-2.6,0-7.1,0.9-11.4
				c-5.7,0.2-6.9,7.6-6.9,17.3v6.2c2.1,0.2,4.1,0.7,5.9,1.6V62.6H171.6z M106.6,163.6h40.8c0-11.8,1.5-15,8.1-18.3
				c8.9-4.4,14.7-10.2,18.6-14.6c12.5-14.1,21.2-29.8,21.2-40.7c0-9.3,0-15.2,0-27s-2.5-17.7-10.6-17.7c-5.9,0-7.1,7.5-7.1,17.4
				v18.8c5,7.3,3.1,17.8-2.7,24.4c-0.1,0.1-6.2,6.5-14.6,16.5l-7.5,8.3c-0.2,0.3-0.5,0.6-0.8,0.8c-1.9-4.5,1.7-11.4,3.3-13.3
				c0.8-1,1.6-1.9,2.4-2.9l0,0c7.4-8.6,12.5-14,12.5-14c4.1-4.7,5.6-13.2,0.7-17.8c-4.9-4.6-13-2.2-17.1,2.5l-16.5,18.8
				c-5.3,0.4-14,1.7-19.9,6.8C108.7,119,106.6,128.1,106.6,163.6z"/>
		</g>
		<g>
			<path class="st9" d="M5.6,174.6c0-0.1,0-0.2-0.1-0.2c-0.1-0.1-0.2-0.1-0.4-0.1V174h7.1c0.5,0,1,0.1,1.4,0.2s0.8,0.3,1.1,0.5
				s0.6,0.5,0.7,0.8c0.2,0.3,0.3,0.7,0.3,1.2c0,0.6-0.2,1-0.5,1.4c-0.3,0.3-0.8,0.6-1.3,0.7l0,0c0.6,0.2,1.2,0.4,1.6,0.8
				c0.4,0.4,0.6,0.9,0.6,1.6c0,0.4-0.1,0.7-0.2,1.1c-0.1,0.3-0.4,0.6-0.7,0.9c-0.3,0.2-0.7,0.4-1.2,0.6c-0.5,0.1-1.1,0.2-1.7,0.2
				H5.1v-0.2c0.2,0,0.4-0.1,0.4-0.1c0.1-0.1,0.1-0.1,0.1-0.2V174.6z M10.9,177.8c0.4,0,0.7,0,1,0s0.5-0.1,0.6-0.1
				c0.1-0.1,0.3-0.1,0.3-0.3c0.1-0.1,0.1-0.3,0.1-0.4c0-0.2,0-0.3-0.1-0.4c-0.1-0.1-0.2-0.2-0.3-0.3s-0.4-0.1-0.6-0.1s-0.6,0-1,0
				H8.4v1.7L10.9,177.8L10.9,177.8z M11.6,181.9c0.7,0,1.1-0.1,1.4-0.3c0.3-0.2,0.4-0.5,0.4-0.9s-0.1-0.7-0.4-0.9
				c-0.3-0.2-0.7-0.3-1.4-0.3H8.4v2.2h3.2V181.9z"/>
			<path class="st9" d="M23.9,173.9c0.8,0,1.5,0.1,2.3,0.3c0.7,0.2,1.3,0.5,1.9,1s1,0.9,1.3,1.6c0.3,0.6,0.5,1.3,0.5,2.2
				c0,0.8-0.2,1.5-0.5,2.2c-0.3,0.6-0.7,1.1-1.3,1.6s-1.1,0.7-1.9,0.9c-0.7,0.2-1.5,0.3-2.3,0.3s-1.5-0.1-2.3-0.3
				c-0.7-0.2-1.3-0.5-1.9-0.9c-0.5-0.4-1-0.9-1.3-1.6c-0.3-0.6-0.5-1.3-0.5-2.2c0-0.8,0.2-1.5,0.5-2.2c0.3-0.6,0.7-1.1,1.3-1.6
				c0.5-0.4,1.1-0.7,1.9-1C22.3,174,23.1,173.9,23.9,173.9z M23.9,176.2c-0.4,0-0.8,0.1-1.2,0.2c-0.4,0.1-0.7,0.3-1,0.5
				s-0.5,0.5-0.7,0.9s-0.3,0.7-0.3,1.2c0,0.4,0.1,0.8,0.3,1.2s0.4,0.6,0.7,0.9c0.3,0.2,0.6,0.4,1,0.5s0.8,0.2,1.2,0.2
				c0.4,0,0.8-0.1,1.2-0.2c0.4-0.1,0.7-0.3,1-0.5s0.5-0.5,0.7-0.9s0.3-0.7,0.3-1.2c0-0.4-0.1-0.8-0.3-1.2s-0.4-0.6-0.7-0.9
				c-0.3-0.2-0.6-0.4-1-0.5C24.7,176.3,24.3,176.2,23.9,176.2z"/>
			<path class="st9" d="M32.7,174.6c0-0.1,0-0.2-0.1-0.2c-0.1-0.1-0.2-0.1-0.4-0.1V174h4.5v0.2c-0.2,0-0.4,0-0.4,0.1
				c-0.1,0-0.1,0.1-0.1,0.2c0,0,0.1,0.1,0.2,0.3c0.2,0.2,0.4,0.4,0.6,0.7c0.3,0.3,0.6,0.6,0.9,1c0.3,0.4,0.7,0.7,1,1.1
				c0.3,0.4,0.7,0.7,1,1s0.6,0.6,0.8,0.9v-5c0-0.2-0.1-0.3-0.4-0.3V174h3.4v0.2c-0.2,0-0.4,0.1-0.4,0.1c-0.1,0.1-0.1,0.1-0.1,0.2
				v8.7c0,0.1,0,0.2,0.1,0.2c0.1,0.1,0.2,0.1,0.4,0.1v0.2h-3.6v-0.2c0.2,0,0.3,0,0.3-0.1c0.1,0,0.1-0.1,0.1-0.1s0-0.1-0.1-0.1
				s-0.1-0.2-0.2-0.3c-0.1-0.1-0.3-0.3-0.6-0.6c-0.2-0.3-0.6-0.6-1-1s-0.9-1-1.5-1.6s-1.3-1.4-2.1-2.3v5.9c0,0.1,0,0.2,0.1,0.2
				c0.1,0.1,0.2,0.1,0.4,0.1v0.2h-3.6v-0.2c0.2,0,0.4-0.1,0.4-0.1c0.1-0.1,0.1-0.1,0.1-0.2v-8.7H32.7z"/>
			<path class="st9" d="M48.9,183.5c0,0.1,0,0.1,0.1,0.1c0,0,0.1,0,0.3,0v0.2H46v-0.2c0.1,0,0.2-0.1,0.3-0.1
				c0.1-0.1,0.1-0.2,0.2-0.3c0-0.1,0.1-0.2,0.2-0.5c0.1-0.3,0.2-0.6,0.4-1s0.3-0.9,0.5-1.4s0.4-1,0.6-1.6c0.2-0.5,0.4-1,0.6-1.6
				s0.4-1,0.5-1.4s0.3-0.7,0.4-1c0.1-0.2,0.1-0.4,0.1-0.4c0-0.1,0-0.1-0.1-0.1s-0.2,0-0.3-0.1V174h4.9v0.2c-0.1,0-0.2,0-0.2,0.1
				c-0.1,0-0.1,0.1-0.1,0.2c0,0,0.1,0.2,0.2,0.5c0.1,0.3,0.3,0.7,0.5,1.2s0.4,1,0.6,1.6s0.5,1.2,0.8,1.9c0.3,0.6,0.5,1.2,0.8,1.8
				s0.5,1.1,0.7,1.6c0.1,0.2,0.2,0.4,0.3,0.4c0.1,0.1,0.2,0.1,0.3,0.1v0.2h-3.7v-0.2c0.2,0,0.4-0.1,0.4-0.2c0,0,0-0.1-0.1-0.3
				s-0.1-0.3-0.2-0.5c-0.1-0.2-0.1-0.4-0.2-0.6s-0.1-0.3-0.1-0.4h-4.4c-0.1,0.3-0.2,0.6-0.3,0.8s-0.1,0.4-0.2,0.5
				c0,0.1-0.1,0.2-0.1,0.3C48.9,183.4,48.9,183.4,48.9,183.5z M53.5,180.3l-1.8-4.5l-1.7,4.5H53.5z"/>
			<path class="st9" d="M60.7,174.6c0-0.1,0-0.2-0.1-0.2c-0.1-0.1-0.2-0.1-0.4-0.1V174h4.5v0.2c-0.2,0-0.4,0-0.4,0.1
				c-0.1,0-0.1,0.1-0.1,0.2c0,0,0.1,0.1,0.2,0.3c0.2,0.2,0.4,0.4,0.6,0.7c0.3,0.3,0.6,0.6,0.9,1s0.7,0.7,1,1.1c0.3,0.4,0.7,0.7,1,1
				s0.6,0.6,0.8,0.9v-5c0-0.2-0.1-0.3-0.4-0.3V174h3.4v0.2c-0.2,0-0.4,0.1-0.4,0.1c-0.1,0.1-0.1,0.1-0.1,0.2v8.7
				c0,0.1,0,0.2,0.1,0.2c0.1,0.1,0.2,0.1,0.4,0.1v0.2h-3.6v-0.2c0.2,0,0.3,0,0.3-0.1c0.1,0,0.1-0.1,0.1-0.1s0-0.1-0.1-0.1
				s-0.1-0.2-0.2-0.3s-0.3-0.3-0.6-0.6c-0.2-0.3-0.6-0.6-1-1s-0.9-1-1.5-1.6s-1.3-1.4-2.1-2.3v5.9c0,0.1,0,0.2,0.1,0.2
				c0.1,0.1,0.2,0.1,0.4,0.1v0.2h-3.6v-0.2c0.2,0,0.4-0.1,0.4-0.1c0.1-0.1,0.1-0.1,0.1-0.2v-8.7H60.7z"/>
			<path class="st9" d="M83.4,181.7c0.1,0,0.2,0,0.2-0.1s0.1-0.2,0.1-0.3h0.2v3h-0.2c0-0.2-0.1-0.3-0.1-0.3s-0.1-0.1-0.2-0.1h-9.6
				v-0.2l5.4-7.4h-4.5c-0.1,0-0.2,0-0.2,0.1c-0.1,0.1-0.1,0.2-0.1,0.3h-0.2v-3.2h0.2c0,0.2,0.1,0.4,0.1,0.4c0,0.1,0.1,0.1,0.2,0.1
				h9.2v0.2l-5.4,7.4h4.9V181.7z"/>
			<path class="st9" d="M88.4,183.5c0,0.1,0,0.1,0.1,0.1c0,0,0.1,0,0.3,0v0.2h-3.3v-0.2c0.1,0,0.2-0.1,0.3-0.1
				c0.1-0.1,0.1-0.2,0.2-0.3c0-0.1,0.1-0.2,0.2-0.5s0.2-0.6,0.4-1c0.2-0.4,0.3-0.9,0.5-1.4s0.4-1,0.6-1.6c0.2-0.5,0.4-1,0.6-1.6
				c0.2-0.5,0.4-1,0.5-1.4s0.3-0.7,0.4-1c0.1-0.2,0.1-0.4,0.1-0.4c0-0.1,0-0.1-0.1-0.1s-0.2,0-0.3-0.1V174h4.9v0.2
				c-0.1,0-0.2,0-0.2,0.1c-0.1,0-0.1,0.1-0.1,0.2c0,0,0.1,0.2,0.2,0.5s0.3,0.7,0.5,1.2s0.4,1,0.6,1.6s0.5,1.2,0.8,1.9
				c0.3,0.6,0.5,1.2,0.8,1.8c0.2,0.6,0.5,1.1,0.7,1.6c0.1,0.2,0.2,0.4,0.3,0.4c0.1,0.1,0.2,0.1,0.3,0.1v0.2H94v-0.2
				c0.2,0,0.4-0.1,0.4-0.2c0,0,0-0.1-0.1-0.3s-0.1-0.3-0.2-0.5s-0.1-0.4-0.2-0.6c-0.1-0.2-0.1-0.3-0.1-0.4H89
				c-0.1,0.3-0.2,0.6-0.3,0.8c-0.1,0.2-0.1,0.4-0.2,0.5c0,0.1-0.1,0.2-0.1,0.3C88.4,183.4,88.4,183.4,88.4,183.5z M92.9,180.3
				l-1.8-4.5l-1.7,4.5H92.9z"/>
			<path class="st9" d="M115.3,176.8c0-0.2-0.1-0.3-0.1-0.4s-0.1-0.1-0.2-0.1h-6.2v1.7h4.2c0.1,0,0.2,0,0.2-0.1s0.1-0.2,0.1-0.3h0.2
				v3.1h-0.2c0-0.2-0.1-0.3-0.1-0.4s-0.1-0.1-0.2-0.1h-4.2v3.1c0,0.1,0,0.2,0.1,0.2c0.1,0.1,0.2,0.1,0.4,0.1v0.2h-3.9v-0.2
				c0.2,0,0.4-0.1,0.4-0.1c0.1-0.1,0.1-0.1,0.1-0.2v-8.7c0-0.1,0-0.2-0.1-0.2c-0.1-0.1-0.2-0.1-0.4-0.1V174h9.6c0.1,0,0.2,0,0.2-0.1
				s0.1-0.2,0.1-0.4h0.2v3.3H115.3z"/>
			<path class="st9" d="M125.9,174.6c0-0.1,0-0.2-0.1-0.2c-0.1-0.1-0.2-0.1-0.4-0.1V174h3.9v0.2c-0.2,0-0.4,0.1-0.4,0.1
				c-0.1,0.1-0.1,0.1-0.1,0.2v5c0,0.8-0.1,1.5-0.4,2.1c-0.3,0.6-0.6,1-1.1,1.3s-1,0.6-1.6,0.7c-0.6,0.1-1.3,0.2-2,0.2
				s-1.4-0.1-2-0.2c-0.6-0.1-1.2-0.4-1.6-0.7c-0.5-0.3-0.8-0.8-1.1-1.3c-0.3-0.6-0.4-1.3-0.4-2.1v-5c0-0.1,0-0.2-0.1-0.2
				c-0.1-0.1-0.2-0.1-0.4-0.1V174h3.9v0.2c-0.2,0-0.4,0.1-0.4,0.1c-0.1,0.1-0.1,0.1-0.1,0.2v5c0,0.7,0.2,1.2,0.6,1.6
				c0.4,0.3,1,0.5,1.7,0.5s1.3-0.2,1.7-0.5s0.6-0.8,0.6-1.6v-4.9H125.9z"/>
			<path class="st9" d="M132.9,174.6c0-0.1,0-0.2-0.1-0.2c-0.1-0.1-0.2-0.1-0.4-0.1V174h4.5v0.2c-0.2,0-0.4,0-0.4,0.1
				c-0.1,0-0.1,0.1-0.1,0.2c0,0,0.1,0.1,0.2,0.3s0.4,0.4,0.6,0.7c0.3,0.3,0.6,0.6,0.9,1c0.3,0.4,0.7,0.7,1,1.1c0.3,0.4,0.7,0.7,1,1
				s0.6,0.6,0.8,0.9v-5c0-0.2-0.1-0.3-0.4-0.3V174h3.4v0.2c-0.2,0-0.4,0.1-0.4,0.1c-0.1,0.1-0.1,0.1-0.1,0.2v8.7
				c0,0.1,0,0.2,0.1,0.2c0.1,0.1,0.2,0.1,0.4,0.1v0.2h-3.6v-0.2c0.2,0,0.3,0,0.3-0.1c0.1,0,0.1-0.1,0.1-0.1s0-0.1-0.1-0.1
				s-0.1-0.2-0.2-0.3c-0.1-0.1-0.3-0.3-0.6-0.6c-0.2-0.3-0.6-0.6-1-1s-0.9-1-1.5-1.6s-1.3-1.4-2.1-2.3v5.9c0,0.1,0,0.2,0.1,0.2
				c0.1,0.1,0.2,0.1,0.4,0.1v0.2h-3.6v-0.2c0.2,0,0.4-0.1,0.4-0.1c0.1-0.1,0.1-0.1,0.1-0.2v-8.7H132.9z"/>
			<path class="st9" d="M154.3,180.3c0-0.1-0.1-0.2-0.2-0.3s-0.2-0.1-0.4-0.1h-3.5v1.7h6c0.1,0,0.2,0,0.2-0.1s0.1-0.2,0.1-0.5h0.2
				v3.2h-0.2c0-0.2-0.1-0.3-0.1-0.3s-0.1-0.1-0.2-0.1h-9.3v-0.2c0.2,0,0.4-0.1,0.4-0.1c0.1-0.1,0.1-0.1,0.1-0.2v-8.7
				c0-0.1,0-0.2-0.1-0.2c-0.1-0.1-0.2-0.1-0.4-0.1V174h9.3c0.1,0,0.2,0,0.2-0.1s0.1-0.2,0.1-0.4h0.2v3.3h-0.2c0-0.2-0.1-0.4-0.1-0.4
				s-0.1-0.1-0.2-0.1h-6v1.6h3.5c0.2,0,0.3,0,0.4-0.1s0.1-0.2,0.2-0.3h0.2v2.9L154.3,180.3L154.3,180.3z"/>
			<path class="st9" d="M162.7,183.3c0,0.1,0,0.2,0.1,0.2c0.1,0.1,0.2,0.1,0.4,0.1v0.2h-3.9v-0.2c0.2,0,0.4-0.1,0.4-0.1
				c0.1-0.1,0.1-0.1,0.1-0.2v-8.7c0-0.1,0-0.2-0.1-0.2c-0.1-0.1-0.2-0.1-0.4-0.1V174h6.8c1.4,0,2.4,0.3,3,0.8s0.9,1.3,0.9,2.3
				c0,0.9-0.3,1.5-0.8,2s-1.1,0.8-1.9,1l2.2,3.1c0.2,0.2,0.3,0.3,0.5,0.3v0.2h-3.9v-0.2c0.3,0,0.4-0.1,0.4-0.3c0,0,0-0.1-0.1-0.3
				s-0.2-0.3-0.4-0.5s-0.3-0.4-0.5-0.7c-0.2-0.2-0.4-0.5-0.5-0.7c-0.2-0.2-0.3-0.4-0.4-0.6c-0.1-0.2-0.2-0.3-0.2-0.4h-1.8
				L162.7,183.3L162.7,183.3z M165.9,178.2c0.5,0,0.9-0.1,1.1-0.3c0.2-0.2,0.3-0.4,0.3-0.7s-0.1-0.5-0.3-0.7s-0.6-0.3-1.1-0.3h-3.1
				v2.1h3.1V178.2z"/>
			<path class="st9" d="M175.1,183.5c0,0.1,0,0.1,0.1,0.1c0,0,0.1,0,0.3,0v0.2h-3.3v-0.2c0.1,0,0.2-0.1,0.3-0.1
				c0.1-0.1,0.1-0.2,0.2-0.3c0-0.1,0.1-0.2,0.2-0.5s0.2-0.6,0.4-1s0.3-0.9,0.5-1.4s0.4-1,0.6-1.6s0.4-1,0.6-1.6
				c0.2-0.5,0.4-1,0.5-1.4s0.3-0.7,0.4-1c0.1-0.2,0.1-0.4,0.1-0.4c0-0.1,0-0.1-0.1-0.1s-0.2,0-0.3-0.1V174h4.9v0.2
				c-0.1,0-0.2,0-0.2,0.1c-0.1,0-0.1,0.1-0.1,0.2c0,0,0.1,0.2,0.2,0.5c0.1,0.3,0.3,0.7,0.5,1.2s0.4,1,0.6,1.6s0.5,1.2,0.8,1.9
				c0.3,0.6,0.5,1.2,0.8,1.8c0.2,0.6,0.5,1.1,0.7,1.6c0.1,0.2,0.2,0.4,0.3,0.4c0.1,0.1,0.2,0.1,0.3,0.1v0.2h-3.7v-0.2
				c0.2,0,0.4-0.1,0.4-0.2c0,0,0-0.1-0.1-0.3s-0.1-0.3-0.2-0.5c-0.1-0.2-0.1-0.4-0.2-0.6c-0.1-0.2-0.1-0.3-0.1-0.4h-4.4
				c-0.1,0.3-0.2,0.6-0.3,0.8s-0.1,0.4-0.2,0.5c0,0.1-0.1,0.2-0.1,0.3C175.1,183.4,175.1,183.4,175.1,183.5z M179.7,180.3l-1.8-4.5
				l-1.7,4.5H179.7z"/>
			<path class="st9" d="M196.2,181.6c0.1,0,0.2,0,0.2-0.1s0.1-0.2,0.1-0.4h0.2v3.2h-0.2c0-0.2-0.1-0.3-0.1-0.4s-0.1-0.1-0.2-0.1
				h-9.8v-0.2c0.2,0,0.4-0.1,0.4-0.1c0.1-0.1,0.1-0.1,0.1-0.2v-8.7c0-0.1,0-0.2-0.1-0.2c-0.1-0.1-0.2-0.1-0.4-0.1V174h3.9v0.2
				c-0.2,0-0.4,0.1-0.4,0.1c-0.1,0.1-0.1,0.1-0.1,0.2v7h6.4V181.6z"/>
		</g>
		<g>
			<path class="st9" d="M7.4,192.2c0-0.1,0-0.2-0.1-0.2s-0.1-0.1-0.2-0.1v-0.2h4.4c0.9,0,1.5,0.2,1.9,0.5s0.6,0.8,0.6,1.4
				c0,0.7-0.2,1.2-0.6,1.5c-0.4,0.4-1,0.5-1.8,0.5h-3v2.5c0,0.1,0,0.2,0.1,0.2c0,0.1,0.1,0.1,0.2,0.1v0.2H7v-0.2
				c0.1,0,0.2,0,0.2-0.1s0.1-0.1,0.1-0.2v-5.9H7.4z M11.4,194.8c0.5,0,0.9-0.1,1.1-0.3c0.2-0.2,0.3-0.5,0.3-0.8s-0.1-0.6-0.3-0.8
				s-0.6-0.2-1.2-0.2H8.5v2.1H11.4z"/>
			<path class="st9" d="M25.7,191.9c-0.1,0-0.2,0-0.2,0.1s-0.1,0.2-0.1,0.3v5.5h4.4c0.3,0,0.5-0.1,0.5-0.4h0.2v1.5h-0.2
				c0-0.2-0.2-0.2-0.5-0.2H24v-0.2c0.1,0,0.2,0,0.2-0.1s0.1-0.1,0.1-0.2v-5.9c0-0.1,0-0.2-0.1-0.2S24.1,192,24,192v-0.2L25.7,191.9
				L25.7,191.9z"/>
			<path class="st9" d="M40.9,197.8c0,0.1-0.1,0.2-0.1,0.3s-0.1,0.2-0.1,0.2c0,0.1,0.1,0.1,0.2,0.1v0.2h-1.6v-0.2c0.1,0,0.1,0,0.1,0
				s0.1,0,0.1-0.1c0,0,0.1-0.1,0.1-0.2c0-0.1,0.1-0.2,0.2-0.3l2.4-5.3c0.1-0.1,0.1-0.3,0.2-0.3c0-0.1,0.1-0.1,0.1-0.2
				c0-0.1-0.1-0.2-0.2-0.2v-0.2h1.9v0.2c-0.1,0-0.2,0.1-0.2,0.2c0,0.1,0,0.1,0.1,0.2c0,0.1,0.1,0.2,0.2,0.3l2.5,5.2
				c0.1,0.2,0.1,0.3,0.2,0.4s0.1,0.2,0.1,0.2l0.1,0.1c0,0,0.1,0,0.2,0v0.2h-1.8v-0.2c0.1,0,0.2,0,0.2,0l0.1-0.1v-0.1
				c0,0-0.1-0.1-0.1-0.3l-0.5-1h-3.7L40.9,197.8z M44.6,195.9l-1.5-3.1l-1.4,3.1H44.6z"/>
			<path class="st9" d="M63.4,196.9v-4.7c0-0.1,0-0.2-0.1-0.2c0-0.1-0.1-0.1-0.2-0.1v-0.2h1.6v0.2c-0.1,0-0.2,0-0.2,0.1
				s-0.1,0.1-0.1,0.2v5.9c0,0.1,0,0.2,0.1,0.2c0,0.1,0.1,0.1,0.2,0.1v0.2H63v-0.2c0.2,0,0.3,0,0.3-0.1s0-0.1-0.1-0.2l-0.1-0.1
				l-4.6-5.3v5.3c0,0.1,0,0.2,0.1,0.2s0.1,0.1,0.2,0.1v0.2h-1.6v-0.2c0.1,0,0.2,0,0.2-0.1s0.1-0.1,0.1-0.2v-5.9c0-0.1,0-0.2-0.1-0.2
				s-0.1-0.1-0.2-0.1v-0.2h2.2v0.2c-0.1,0-0.2,0-0.2,0l-0.1,0.1v0.1c0,0,0,0.1,0.1,0.1L63.4,196.9L63.4,196.9z"/>
			<path class="st9" d="M92,196c-0.3,0-0.5,0.1-0.5,0.3h-0.2v-1.5h0.2c0,0.3,0.2,0.4,0.5,0.4h2.8v0.2c-0.1,0-0.2,0-0.2,0.1
				c0,0,0,0.1,0,0.3v1.1c0,0.1,0,0.2,0.1,0.3c0,0,0.1,0.1,0.2,0.1v0.2c-0.6,0.5-1.3,0.8-1.9,1c-0.7,0.2-1.3,0.3-1.8,0.3
				c-0.6,0-1.1-0.1-1.6-0.2c-0.5-0.2-0.9-0.4-1.3-0.7s-0.6-0.7-0.8-1.1c-0.2-0.4-0.3-0.9-0.3-1.4s0.1-1,0.3-1.4
				c0.2-0.4,0.5-0.8,0.8-1.1s0.8-0.6,1.2-0.8s1-0.3,1.5-0.3s1,0,1.4,0.1s0.7,0.2,0.9,0.3c0.2,0.1,0.4,0.2,0.6,0.3
				c0.1,0.1,0.2,0.1,0.3,0.1c0.1,0,0.1,0,0.1,0l0.1-0.1l0.2,0.1l-0.9,1.3l-0.2-0.1c0,0,0.1-0.1,0.1-0.2c0-0.1-0.1-0.2-0.2-0.3
				s-0.3-0.2-0.5-0.3s-0.5-0.2-0.8-0.3s-0.7-0.1-1-0.1c-0.5,0-0.9,0.1-1.3,0.2c-0.4,0.1-0.7,0.3-0.9,0.6c-0.2,0.2-0.4,0.5-0.5,0.8
				s-0.2,0.6-0.2,1s0.1,0.8,0.2,1.1s0.4,0.6,0.6,0.8s0.5,0.4,0.9,0.5c0.3,0.1,0.7,0.2,1,0.2c0.6,0,1.1-0.1,1.5-0.2
				c0.5-0.1,0.8-0.3,1.1-0.6v-1L92,196L92,196z"/>
			<path class="st9" d="M106.8,198.2c0,0.1,0,0.2,0.1,0.2c0,0.1,0.1,0.1,0.2,0.1v0.2h-1.7v-0.2c0.1,0,0.2,0,0.2-0.1s0.1-0.1,0.1-0.2
				v-5.9c0-0.1,0-0.2-0.1-0.2c0-0.1-0.1-0.1-0.2-0.1v-0.2h4.4c0.9,0,1.5,0.2,1.9,0.5s0.6,0.8,0.6,1.4c0,0.5-0.1,1-0.4,1.3
				s-0.8,0.5-1.4,0.6l1.6,2.5c0.1,0.1,0.2,0.2,0.2,0.3c0.1,0,0.1,0.1,0.3,0.1v0.2h-1.9v-0.2c0.1,0,0.2,0,0.2,0s0,0,0-0.1
				s0-0.1-0.1-0.1l-1.6-2.6h-2.4C106.8,195.7,106.8,198.2,106.8,198.2z M109.7,194.8c0.5,0,0.9-0.1,1.1-0.3s0.3-0.5,0.3-0.8
				c0-0.2,0-0.3-0.1-0.4c0-0.1-0.1-0.2-0.2-0.3s-0.3-0.1-0.5-0.2c-0.2,0-0.4-0.1-0.8-0.1h-2.8v2.1H109.7z"/>
			<path class="st9" d="M123.3,192.2c0-0.1,0-0.2-0.1-0.2c0-0.1-0.1-0.1-0.2-0.1v-0.2h5.5c0.2,0,0.4,0,0.4-0.1
				c0.1,0,0.1-0.1,0.1-0.2h0.2v1.5H129c0-0.1,0-0.2-0.1-0.3s-0.2-0.1-0.4-0.1h-4.1v2.1h2.6c0.2,0,0.3,0,0.4-0.1s0.2-0.1,0.2-0.3h0.2
				v1.6h-0.2c0-0.1,0-0.2-0.1-0.3s-0.2-0.1-0.4-0.1h-2.7v2.2h4.4c0.2,0,0.3,0,0.4-0.1s0.1-0.2,0.1-0.3h0.2v1.6h-0.2
				c0-0.2-0.2-0.2-0.5-0.2H123v-0.2c0.1,0,0.2,0,0.2-0.1s0.1-0.1,0.1-0.2C123.3,198.1,123.3,192.2,123.3,192.2z"/>
			<path class="st9" d="M139.9,198.5c0.1,0,0.2,0,0.3-0.1c0-0.1,0.1-0.1,0.1-0.2v-5.9c0-0.1,0-0.2-0.1-0.2s-0.1-0.1-0.3-0.1v-0.2
				h2.2v0.2c-0.2,0-0.3,0.1-0.3,0.2c0,0.1,0,0.1,0.1,0.1l2.1,4.2l2.2-4.2v-0.1v-0.1c0,0,0-0.1-0.1-0.1c0,0-0.1,0-0.3,0v-0.2h2.3v0.2
				c-0.1,0-0.2,0-0.3,0.1s-0.1,0.1-0.1,0.2v5.9c0,0.1,0,0.2,0.1,0.2s0.1,0.1,0.3,0.1v0.2h-1.8v-0.2c0.1,0,0.2,0,0.3-0.1
				s0.1-0.1,0.1-0.2V193l0,0l-2.8,5.5l-2.8-5.5l0,0v5.2c0,0.1,0,0.2,0.1,0.2s0.1,0.1,0.2,0.1v0.2h-1.6v-0.2H139.9z"/>
			<path class="st9" d="M159,198.5c0.1,0,0.2,0,0.2-0.1s0.1-0.1,0.1-0.2v-5.9c0-0.1,0-0.2-0.1-0.2c0-0.1-0.1-0.1-0.2-0.1v-0.2h1.7
				v0.2c-0.1,0-0.2,0-0.2,0.1s-0.1,0.1-0.1,0.2v5.9c0,0.1,0,0.2,0.1,0.2c0,0.1,0.1,0.1,0.2,0.1v0.2H159V198.5z"/>
			<path class="st9" d="M172.2,197.8c0,0.1-0.1,0.2-0.1,0.3s-0.1,0.2-0.1,0.2c0,0.1,0.1,0.1,0.2,0.1v0.2h-1.6v-0.2
				c0.1,0,0.1,0,0.1,0s0.1,0,0.1-0.1c0,0,0.1-0.1,0.1-0.2c0-0.1,0.1-0.2,0.2-0.3l2.4-5.3c0.1-0.1,0.1-0.3,0.2-0.3
				c0-0.1,0.1-0.1,0.1-0.2c0-0.1-0.1-0.2-0.2-0.2v-0.2h1.9v0.2c-0.1,0-0.2,0.1-0.2,0.2c0,0.1,0,0.1,0.1,0.2c0,0.1,0.1,0.2,0.2,0.3
				l2.5,5.2c0.1,0.2,0.1,0.3,0.2,0.4c0,0.1,0.1,0.2,0.1,0.2l0.1,0.1c0,0,0.1,0,0.2,0v0.2h-1.8v-0.2c0.1,0,0.2,0,0.2,0l0.1-0.1v-0.1
				c0,0-0.1-0.1-0.1-0.3l-0.5-1h-3.7L172.2,197.8z M175.9,195.9l-1.5-3.1l-1.4,3.1H175.9z"/>
			<path class="st9" d="M190.1,191.9c-0.1,0-0.2,0-0.2,0.1s-0.1,0.2-0.1,0.3v5.5h4.4c0.3,0,0.5-0.1,0.5-0.4h0.2v1.5h-0.2
				c0-0.2-0.2-0.2-0.5-0.2h-5.8v-0.2c0.1,0,0.2,0,0.2-0.1s0.1-0.1,0.1-0.2v-5.9c0-0.1,0-0.2-0.1-0.2c0-0.1-0.1-0.1-0.2-0.1v-0.2
				L190.1,191.9L190.1,191.9L190.1,191.9z"/>
		</g>
	</g>
</g>
</svg>
